<?xml version="1.0" encoding="utf-8"?>
<!-- Generator: Adobe Adobe Illustrator 24.2.0, SVG Export Plug-In . SVG Version: 6.00 Build 0)  -->
<svg version="1.1" xmlns="http://www.w3.org/2000/svg" xmlns:xlink="http://www.w3.org/1999/xlink" x="0px" y="0px" width="920px"
	 height="450px" viewBox="0 0 920 450" style="enable-background:new 0 0 920 450;" xml:space="preserve">
<style type="text/css">
	.st0{fill:#C8BFAB;}
	.st1{fill:#162A2F;}
	.st2{fill:#2B1E17;}
	.st3{fill:#606C71;}
	.st4{fill:#417F8E;}
	.st5{fill:#CFE6ED;}
	.st6{fill:#FFFFFF;}
</style>
<g id="Background_xA0_Image_1_">
</g>
<g id="Vector_layer_1_">
	<path class="st0" d="M148.62,305.84c-2.5-0.78-4.98-1.63-7.44-2.55h0c-13.73-5.11-26.89-12.17-39.78-18.88
		c-9.72-4.91-19.25-10.3-29.44-14.24c-6.89-2.64-14.94-3.24-21.52,0.55c-0.47,0.49-1.09,0.83-1.85,0.82c-1.33,0-2.55-1.14-2.5-2.5
		c0.26-3.13,5.17-4.13,7.64-5.02c8.04-2.44,16.49-0.25,23.95,3.04c9.85,4.26,19.22,9.53,28.8,14.34
		c13.86,7.21,27.29,14.42,42.03,19.15h0c1.52,0.49,3.05,0.95,4.6,1.38c1.15,0.31,2.31,0.61,3.47,0.89
		C153.93,303.82,151.28,304.83,148.62,305.84L148.62,305.84z"/>
	<path class="st0" d="M263.89,296.73c-0.07-0.01-0.14-0.02-0.2-0.03c3.1-1.1,6.18-2.25,9.25-3.47
		c15.29-6.07,30.04-13.55,44.18-21.91c7.57-4.57,15.02-9.31,22.27-14.19c6.73-4.41,13.21-9.32,20.48-12.82
		c5.13-2.43,10.48-4.52,16.12-5.38c4.84-0.48,9.74-0.46,14.65-0.44c3.73,0.02,7.46,0.04,11.16-0.17h0c-0.11,1.65-0.23,3.32-0.34,5h0
		c-4.36,0.25-8.77,0.25-13.32,0.25c-3.09,0-6.24,0-9.47,0.08c-12.87,1.32-23.82,9.03-34.23,16.08c-5.29,3.61-10.64,7.14-16.08,10.54
		c-14.84,9.36-30.34,17.75-46.47,24.66c-2.82,1.21-5.67,2.37-8.54,3.48C270.19,297.86,267.04,297.29,263.89,296.73z"/>
	<path class="st0" d="M414.08,238.56c0-0.69,0-1.37,0-2.06c1.05-0.29,2.11-0.61,3.15-0.98c2.73-1.02,5.4-2.18,8.03-3.44
		c4.85-2.47,9.02-6.09,13.96-8.39c17-8.3,36.51-8.69,55.07-8.73c6.21,0.22,12.42,0.61,18.55,1.62c1.55,0.3,3.09,0.63,4.62,1
		c-0.91,1.48-1.8,2.96-2.7,4.46c-0.03-0.01-0.07-0.02-0.1-0.02c-10.19-2.01-20.93-2.32-31.38-1.94c-0.29-0.12-0.61-0.23-0.96-0.33
		c-9.29-1.24-19.07,0.65-28.17,2.07c-14.81,2.86-28.36,9.72-40.15,18.96C414.01,239.92,414.03,239.18,414.08,238.56z"/>
	<path class="st0" d="M526.83,225.5c0.06-0.18,0.12-0.35,0.19-0.52c0.02-0.06,0.05-0.12,0.07-0.19c0.02-0.05,0.04-0.11,0.07-0.16
		c0.05-0.13,0.11-0.26,0.16-0.39c0.07-0.16,0.14-0.32,0.22-0.48c0.08-0.18,0.17-0.35,0.26-0.52c0.38-0.75,0.82-1.51,1.29-2.27
		c1.62,0.55,3.25,1.12,4.86,1.71c-0.02,0.04-0.05,0.07-0.07,0.11c-0.06,0.12-0.12,0.23-0.19,0.35c-0.07,0.11-0.13,0.23-0.2,0.35
		c-0.07,0.11-0.14,0.23-0.21,0.35c-0.05,0.09-0.11,0.18-0.16,0.26c-0.09,0.14-0.18,0.29-0.27,0.44c-0.04,0.06-0.07,0.12-0.11,0.18
		c-0.07,0.12-0.14,0.23-0.21,0.36c-0.04,0.06-0.07,0.12-0.11,0.18c-0.11,0.18-0.21,0.36-0.3,0.54c-0.04,0.08-0.08,0.15-0.12,0.23
		c-0.09,0.17-0.16,0.34-0.24,0.5c-0.05,0.12-0.11,0.25-0.15,0.38c0,0,0,0,0,0.01c-0.01,0.02-0.01,0.04-0.02,0.05
		c-0.02,0.06-0.04,0.12-0.06,0.19C529.96,226.57,528.4,226.02,526.83,225.5z"/>
	<path class="st0" d="M665.79,251.8c-1.77-0.05-3.54-0.11-5.31-0.18c-0.06-0.18-0.11-0.36-0.17-0.53c-0.03-0.09-0.05-0.17-0.08-0.25
		c-0.07-0.24-0.15-0.48-0.23-0.72c-0.11-0.32-0.21-0.65-0.31-0.98c-0.26-0.83-0.52-1.66-0.78-2.49c1.79,0.06,3.56,0.12,5.35,0.17h0
		c0.45,1.48,0.91,2.96,1.36,4.43C665.69,251.44,665.74,251.62,665.79,251.8L665.79,251.8z"/>
	<path class="st0" d="M854.16,344.01c-11.83-2.82-23.88-5.41-35.04-10.36c-12.03-5.23-22.81-12.82-33.16-20.8
		c-11.5-8.48-21.29-18.89-31.83-28.47c-9.3-7.71-18.06-16.24-28.22-22.84c-13.13-7.59-28.34-9-43.3-9.38
		c-0.35-1.68-0.72-3.35-1.1-5.02c13.91,0.3,28,1.39,40.85,7.01c8.8,3.67,15.88,10.21,23.09,16.26c11.35,9.05,21.54,19.38,32.19,29.2
		c13.53,11.38,27.66,22.51,43.94,29.66c10.86,4.63,22.46,7.2,33.91,9.91c1.33,0.3,2.09,1.8,1.75,3.07
		c-0.31,1.15-1.36,1.82-2.46,1.82C854.57,344.08,854.36,344.06,854.16,344.01z"/>
	<path class="st0" d="M49.37,325.88c-0.59-0.83-0.7-1.91-0.18-2.8c0.6-1.02,1.9-1.44,2.91-1.91c6.72-3.07,14.01-4.5,21.32-5.25
		c13.27-1.21,26.32-1.57,39.37-4.23c9.74-1.89,19.1-5,28.38-8.4c2.45-0.89,4.89-1.81,7.34-2.73c8.88-3.34,17.74-6.73,26.85-9.33
		c8.48-2.56,17.16-3.71,25.9-4.05c0.14,1.64,0.28,3.27,0.43,4.91c-12.47,0.54-24.74,3.29-36.47,7.62c-2.89,1-5.77,2.06-8.64,3.13
		c-2.66,1-5.31,2.01-7.96,3.01c-9.5,3.59-19.02,7.1-28.91,9.44c-5.33,1.28-10.74,2.25-16.17,2.98c-12.66,1.94-25.58,1.5-38.17,3.89
		c-4.31,0.92-8.54,2.26-12.51,4.19c-0.44,0.34-0.99,0.5-1.54,0.5C50.57,326.84,49.82,326.52,49.37,325.88z"/>
	<path class="st0" d="M335.15,310.82c-20.51-4.52-41.14-8.62-61.8-12.39c-3.15-0.57-6.3-1.14-9.45-1.7
		c-0.07-0.01-0.14-0.02-0.2-0.03c-14.22-1.96-28.57-3.34-42.84-4.15c-0.49-1.72-1.01-3.43-1.54-5.13c5.22,0.29,10.43,0.73,15.6,1.17
		c11.15,0.91,22.3,1.93,33.35,3.76c1.56,0.29,3.11,0.59,4.67,0.89c2.98,0.57,5.96,1.14,8.95,1.71c11.95,2.3,23.88,4.64,35.82,6.98
		c12.48,2.57,24.87,5.62,37.37,8.09c-1.44,1.42-2.9,2.82-4.39,4.19C345.49,313.12,340.32,311.97,335.15,310.82z"/>
	<path class="st0" d="M406,320.68c-0.69-0.04-1.39-0.09-2.08-0.13c-1.12-0.07-2.25-0.15-3.37-0.22h0c0.71-1.37,1.42-2.73,2.14-4.1
		c0.12-0.24,0.25-0.48,0.37-0.72h0c1.82,0.11,3.65,0.21,5.48,0.3c3.28,0.18,6.55,0.34,9.83,0.5c17.62,0.81,35.22-1.16,52.45-4.81
		c21.96-4.38,43.36-11.64,65.82-13.28c11.23-1.23,22.47-2.88,33.79-2.67c1.33,0.03,2.66,0.07,4,0.12c-0.28,1.65-0.58,3.3-0.9,4.94
		c-4.42-0.12-8.85-0.06-13.25,0.18c-15.05,1.41-30.14,2.88-45.04,5.46c-7.21,1.5-14.33,3.37-21.46,5.16
		c-18.41,4.49-37.03,8.6-55.99,9.78c-3.5,0.2-7.01,0.28-10.52,0.28C420.18,321.46,413.08,321.12,406,320.68z"/>
	<path class="st0" d="M789.39,352.13c-29.14-6.37-58.4-12.46-87.08-20.71c-22.2-6.78-45.02-11.22-67.3-17.68
		c-11.34-3.49-22.54-7.47-34.11-10.1c-3.82-0.75-7.67-1.37-11.55-1.84c0.03-1.68,0.06-3.37,0.1-5.05c4.71,0.54,9.39,1.29,14.01,2.36
		c11.21,2.61,22.04,6.54,33.04,9.87c10.98,3.34,22.19,5.86,33.34,8.55c15.13,3.63,30.04,8.1,45.03,12.21
		c16.64,4.54,33.48,8.23,50.32,11.96c8.5,1.93,17,3.86,25.53,5.62c1.34,0.27,2.09,1.83,1.75,3.07c-0.27,1.1-1.35,1.83-2.44,1.83
		C789.81,352.21,789.6,352.18,789.39,352.13z"/>
	<path class="st1" d="M416.33,175.45c-9.64-0.39-19.45-3.14-27.38-8.73c-14.35-10.66-20.94-30-16.17-47.21
		c3.97-13.98,13.93-26.32,26.86-33c10.07-4.93,21.94-5.22,32.72-2.7c0.7-0.78,1.84-1.05,2.85-0.66c2.46,0.98,4.81,2.28,7.07,3.66
		c4.63,2.74,9.11,5.91,12.55,10.1c12.92,14.88,11.48,37.6,1.99,53.88c-3.67,5.75-7.96,11.28-13.43,15.41
		c-7.86,5.56-17.35,9.25-27.05,9.25C416.34,175.45,416.33,175.45,416.33,175.45z M386.45,127c1.57,1.89,4.09,2.56,6.29,3.45
		c5.22,1.73,10.61,2.9,16,4.02c11.55,2.29,23.28,3.44,35.04,3.96c2.12,0.1,4.27,0.24,6.39,0.14c0.51-2.65,0.41-5.37,0.26-8.05
		c0.06-1.12-0.36-1.88-0.79-2.84c-2.88,0.54-5.96-0.38-8.87-0.62c-2.77-0.4-5.53-0.84-8.29-1.31c-14.62-2.48-29.35-6.12-44.11-7.33
		C387.69,121.28,387.06,124.14,386.45,127z"/>
	<path class="st2" d="M668.76,287.34c-4.79-0.46-9.54-1.2-14.25-2.13c-0.86-0.16-1.71-0.34-2.57-0.52
		c-0.86-0.18-1.71-0.36-2.56-0.55c-0.43-0.09-0.86-0.19-1.28-0.29c-0.98-0.22-1.95-0.45-2.92-0.68c-0.48-0.11-0.97-0.23-1.46-0.35
		c-2.43-0.58-4.86-1.19-7.27-1.81c-0.97-0.25-1.94-0.5-2.91-0.75c-0.48-0.12-0.97-0.25-1.45-0.38c-1.93-0.5-3.87-1-5.8-1.49
		c-1.45-0.37-2.9-0.73-4.36-1.09c-0.52-0.13-1.04-0.26-1.56-0.39c-1.04-0.25-2.08-0.51-3.12-0.77c-0.52-0.13-1.04-0.26-1.56-0.39
		c-1.04-0.26-2.08-0.53-3.12-0.8s-2.07-0.54-3.11-0.82c-0.96-0.26-1.91-0.52-2.87-0.79c-0.63-0.18-1.27-0.36-1.9-0.55
		c-0.32-0.09-0.63-0.19-0.95-0.28c-0.55-0.16-1.11-0.34-1.66-0.5c-1.65-0.51-3.3-1.05-4.94-1.62c-1.87-0.65-3.73-1.34-5.57-2.08
		c-0.58-0.23-1.15-0.46-1.72-0.71c-1.15-0.48-2.29-0.97-3.42-1.48c-2.27-1.01-4.51-2.07-6.74-3.17c-1.68-0.82-3.34-1.65-5-2.49
		s-3.32-1.69-4.98-2.53c-1.66-0.84-3.32-1.68-4.98-2.51c-2.67-1.34-5.34-2.68-8-4.03c-0.89-0.45-1.77-0.91-2.66-1.36
		c-1.77-0.91-3.54-1.84-5.29-2.77c-0.88-0.47-1.75-0.94-2.63-1.42c-0.43-0.24-0.87-0.48-1.31-0.72s-0.87-0.48-1.3-0.72
		c-0.31-0.18-0.62-0.35-0.93-0.53c-0.62-0.35-1.25-0.7-1.87-1.07c-0.31-0.18-0.62-0.36-0.93-0.54c-1.23-0.73-2.46-1.48-3.65-2.28
		c-0.6-0.39-1.19-0.8-1.77-1.22c-1.75-1.25-3.41-2.6-4.95-4.11c-0.07-0.07-0.14-0.13-0.21-0.2s-0.13-0.13-0.2-0.2
		c-2.93-2.95-3.14-5.88-2.17-8.79h0c0-0.02,0.01-0.04,0.02-0.05c0.05-0.16,0.11-0.31,0.17-0.47c0.09-0.25,0.19-0.5,0.3-0.74h0
		c0.01-0.04,0.03-0.07,0.04-0.1c0.04-0.09,0.08-0.18,0.12-0.27c0.03-0.07,0.06-0.14,0.1-0.2c0.02-0.04,0.04-0.08,0.06-0.12
		c0.1-0.2,0.2-0.39,0.3-0.59c0.05-0.09,0.1-0.19,0.15-0.29c0.04-0.06,0.07-0.13,0.1-0.19c0.01-0.01,0.02-0.02,0.02-0.03
		c0.06-0.11,0.13-0.23,0.2-0.34c0,0,0,0,0-0.01c0.07-0.12,0.14-0.25,0.21-0.37c0.04-0.06,0.07-0.12,0.11-0.19h0
		c0.03-0.05,0.05-0.1,0.09-0.15c0.08-0.14,0.17-0.27,0.25-0.41c0,0,0,0,0-0.01h0c0.07-0.12,0.14-0.24,0.22-0.36
		c0.08-0.12,0.16-0.25,0.23-0.37c0.16-0.25,0.32-0.5,0.47-0.74c0.16-0.25,0.32-0.49,0.48-0.74c0.24-0.37,0.48-0.74,0.71-1.11
		c0.24-0.37,0.47-0.73,0.69-1.1c7.14-11.03,14.54-21.89,21.8-32.82c12.14-17.74,22.6-36.59,35.32-53.95
		c9.39-12.27,19.68-23.8,29.57-35.66c2.97-3.56,5.71-7.33,8.33-11.15c0.48-0.73,0.91-1.62,1.61-2.11c0.32-0.22,0.69-0.36,1.14-0.37
		v0c1.12-1.81,4.34-1.14,4.52,1.09c0.16,1.77,0.18,3.55,0.21,5.32c0.09,13.11-0.03,26.29,2.55,39.21
		c2.95,15.9,6.17,31.74,8.61,47.73c0.13,0.77,0.26,1.55,0.4,2.32c0.13,0.77,0.27,1.55,0.41,2.32c0.1,0.54,0.2,1.08,0.3,1.62
		c0.09,0.51,0.19,1.02,0.29,1.52c0.13,0.7,0.27,1.39,0.41,2.09c0.13,0.66,0.26,1.32,0.4,1.97c0.1,0.49,0.2,0.98,0.3,1.46
		c0.12,0.56,0.23,1.12,0.36,1.68c0.03,0.15,0.06,0.29,0.09,0.44c0.12,0.58,0.25,1.16,0.38,1.75c0.11,0.51,0.22,1.02,0.34,1.54
		c0.15,0.69,0.31,1.39,0.47,2.08c0.17,0.77,0.35,1.53,0.53,2.3c0.45,1.91,0.91,3.82,1.39,5.73c0.13,0.53,0.26,1.06,0.39,1.59
		c0.37,1.46,0.74,2.92,1.13,4.38c0.17,0.68,0.35,1.35,0.53,2.02c0.18,0.69,0.36,1.38,0.55,2.06c0.04,0.14,0.07,0.27,0.11,0.41
		c0.33,1.22,0.66,2.44,1,3.66c0.09,0.32,0.18,0.65,0.27,0.98c0.18,0.66,0.37,1.33,0.56,1.99c0.21,0.76,0.43,1.52,0.64,2.27
		c0.45,1.6,0.91,3.2,1.38,4.8c0.41,1.42,0.83,2.84,1.25,4.27c1.12,3.77,2.25,7.53,3.4,11.28c0.43,1.41,0.86,2.83,1.3,4.24
		c0.02,0.09,0.05,0.18,0.08,0.26c0.45,1.48,0.91,2.96,1.37,4.43c0.05,0.18,0.11,0.37,0.17,0.55c0.22,0.72,0.45,1.44,0.67,2.16
		c1.44,5.87,12.55,26.57,6.89,32.05c-0.05,0.05-0.11,0.11-0.17,0.16c-0.12,0.1-0.24,0.2-0.37,0.29c0,0,0,0,0,0
		c-0.26,0.18-0.54,0.33-0.86,0.46h0c-0.71,0.29-1.56,0.44-2.57,0.44C669.19,287.36,668.97,287.35,668.76,287.34z M574.08,254.59
		c0.32,0.16,0.63,0.32,0.95,0.48c0.94,0.48,1.88,0.95,2.81,1.42c0.63,0.31,1.25,0.62,1.88,0.93c0.62,0.31,1.25,0.62,1.88,0.92
		c0,0,0,0,0,0c0.62,0.3,1.25,0.61,1.88,0.91h0c0.63,0.3,1.25,0.6,1.88,0.89h0c1.89,0.89,3.79,1.74,5.72,2.55c0,0,0,0,0,0
		c0.96,0.41,1.93,0.81,2.9,1.2h0c0.65,0.26,1.3,0.52,1.96,0.76c0.98,0.38,1.98,0.74,2.98,1.09h0c1.87,0.64,3.75,1.25,5.63,1.82
		c0,0,0,0,0,0c3.15,0.95,6.32,1.82,9.5,2.64c0,0,0,0,0,0c5.1,1.32,10.22,2.54,15.32,3.83c13.34,3.3,26.69,7.3,40.45,8.34v0
		c0.35-2.99-0.5-6.02-1.44-8.84c-1.8-5.05-3.79-10.03-5.64-15.07c-0.2-0.57-0.39-1.14-0.58-1.71c-0.2-0.57-0.39-1.14-0.58-1.71
		c-0.45-1.32-0.88-2.63-1.3-3.96c-0.03-0.09-0.05-0.17-0.08-0.25c-0.06-0.18-0.12-0.37-0.18-0.55c-0.02-0.05-0.04-0.11-0.05-0.17
		c-0.37-1.15-0.73-2.31-1.09-3.47c-0.34-1.08-0.67-2.16-0.99-3.24c-0.33-1.08-0.65-2.16-0.97-3.24c-0.21-0.72-0.43-1.44-0.64-2.16
		c-0.43-1.45-0.84-2.89-1.25-4.34c-0.9-3.12-1.79-6.26-2.67-9.39c-0.89-3.13-1.77-6.26-2.68-9.39c-0.28-0.97-0.56-1.94-0.85-2.91
		c-1.5-5.23-2.81-10.5-3.98-15.8v0c-0.3-1.32-0.58-2.65-0.86-3.98c0,0,0,0,0,0c-0.28-1.33-0.55-2.66-0.82-3.98
		c-0.13-0.66-0.26-1.33-0.39-2c-0.26-1.33-0.52-2.66-0.76-4c-0.12-0.67-0.25-1.34-0.37-2c0,0,0,0,0,0
		c-0.25-1.34-0.48-2.67-0.72-4.01c-0.71-4.01-1.4-8.02-2.08-12.04v0c-0.91-5.36-1.82-10.71-2.79-16.05
		c-2.02-10.43-4.27-20.81-5.6-31.35c-1.15-9.5-0.93-19.1-1.05-28.66c-0.72,1-1.45,1.99-2.2,2.98c-0.74,0.98-1.49,1.96-2.24,2.93
		c-0.76,0.97-1.53,1.94-2.3,2.91c-1.16,1.44-2.32,2.87-3.5,4.3c0,0,0,0,0,0c-1.18,1.42-2.37,2.84-3.56,4.25
		c-0.4,0.47-0.8,0.94-1.2,1.41c-1.01,1.19-2.03,2.38-3.05,3.57c-0.59,0.69-1.17,1.37-1.76,2.06c-1.2,1.4-2.41,2.8-3.61,4.21
		c-4.8,5.64-9.52,11.34-13.91,17.3c-3.15,4.45-6.2,8.95-9.18,13.5c-0.85,1.29-1.7,2.59-2.54,3.9
		c-9.71,14.99-18.91,30.29-29.14,44.96c-3.27,4.94-6.59,9.85-9.86,14.79c-0.71,1.07-1.41,2.14-2.12,3.21
		c-1.8,2.74-3.57,5.5-5.3,8.28c-0.02,0.04-0.05,0.07-0.07,0.11c-0.06,0.12-0.12,0.23-0.19,0.35c0,0,0,0,0,0
		c-0.03,0.05-0.06,0.11-0.1,0.17c-0.07,0.12-0.14,0.23-0.21,0.35c-0.03,0.05-0.07,0.11-0.1,0.17c0,0,0,0,0,0
		c-0.07,0.11-0.14,0.23-0.21,0.35c-0.07,0.11-0.14,0.23-0.21,0.35c-0.04,0.06-0.07,0.12-0.11,0.18c0,0,0,0,0,0
		c-0.07,0.12-0.14,0.23-0.21,0.35c0,0,0,0,0,0c-0.21,0.36-0.42,0.71-0.59,1.08c-0.02,0.03-0.03,0.05-0.04,0.08
		c0,0.01-0.01,0.02-0.02,0.04c-0.03,0.06-0.06,0.12-0.09,0.18c-0.03,0.07-0.06,0.13-0.08,0.2c-0.01,0.02-0.02,0.04-0.03,0.07
		c-0.03,0.08-0.06,0.16-0.09,0.24c-0.02,0.06-0.05,0.12-0.07,0.19c-0.02,0.06-0.04,0.12-0.05,0.18c-0.07,0.24-0.12,0.48-0.15,0.72
		c0,0.02-0.01,0.03,0,0.05c-0.01,0.06-0.02,0.12-0.02,0.18c-0.02,0.13-0.02,0.26-0.02,0.39c0.48,1.16,1.25,2.12,2.14,2.99
		c0,0,0,0,0,0c0.21,0.2,0.42,0.39,0.64,0.58h0c0.14,0.13,0.29,0.25,0.44,0.38c0,0,0,0,0,0c0.15,0.12,0.3,0.25,0.45,0.36h0
		c0.15,0.12,0.3,0.24,0.46,0.36c0,0,0,0,0,0c0.16,0.12,0.31,0.23,0.46,0.35c0.62,0.46,1.24,0.91,1.83,1.37
		c1.21,0.8,2.45,1.58,3.69,2.34c3.11,1.91,6.3,3.7,9.52,5.43c0,0,0,0,0,0c5.8,3.11,11.72,6,17.48,8.91
		c1.27,0.64,2.54,1.28,3.79,1.92c0,0,0,0,0,0C572.83,253.96,573.46,254.28,574.08,254.59z"/>
	<path class="st2" d="M591.75,210.04c0-0.11,0.01-0.22,0.01-0.33c-0.59-0.95-0.32-2.12,0.14-3.09c0.33-5.36,0.92-10.56,1.51-15.88
		c1.57-13.53,2.62-27.17,5.75-40.45c1.91-7.54,4.59-18.12,13.96-18.61c0.2-0.02,0.4-0.04,0.61-0.05c0.42-0.04,0.87-0.07,1.34-0.11
		c0.36-0.03,0.73-0.05,1.11-0.07c0.36-0.02,0.73-0.04,1.1-0.06c0.99-0.04,2.02-0.05,3.05,0c0.24,0.01,0.48,0.03,0.72,0.05
		c0.72,0.05,1.44,0.14,2.12,0.27c0.23,0.04,0.45,0.09,0.67,0.14c0,0,0,0,0,0c0.22,0.05,0.43,0.11,0.65,0.18
		c0.32,0.09,0.63,0.2,0.93,0.33c0.5,0.2,0.96,0.45,1.39,0.73c0.34,0.23,0.65,0.48,0.93,0.77c0.28,0.29,0.52,0.61,0.73,0.96
		c1.82,4.04-2.09,10.03-3.38,14c-4.05,9.84-8.6,19.46-13.33,28.99c-4.45,8.99-8.87,18-13.41,26.93c-0.9,1.73-1.85,3.28-1.62,5.29
		c-0.04,1.63-1.28,2.46-2.52,2.46C593.01,212.5,591.78,211.69,591.75,210.04z"/>
	<path class="st2" d="M585.99,250.46c-0.52-0.12-1-0.29-1.46-0.48c-0.27-0.12-0.54-0.25-0.79-0.39c-0.09-0.05-0.17-0.1-0.25-0.15
		c-0.16-0.1-0.32-0.21-0.47-0.32c-0.38-0.28-0.74-0.59-1.06-0.92c-1.18-1.21-1.98-2.77-2.43-4.47c0-0.02-0.01-0.03-0.01-0.05
		c-0.03-0.1-0.05-0.2-0.07-0.3c-0.03-0.12-0.06-0.24-0.08-0.36c-0.02-0.09-0.04-0.19-0.05-0.29c-0.02-0.12-0.05-0.25-0.06-0.37
		c-0.02-0.08-0.03-0.16-0.04-0.24c-0.02-0.1-0.03-0.2-0.04-0.3c-0.09-0.71-0.12-1.43-0.09-2.15c0-0.11,0-0.21,0.01-0.32
		c0.01-0.22,0.02-0.45,0.05-0.67c0-0.03,0-0.05,0.01-0.08c0.13-1.37,0.45-2.71,0.94-3.92c0.87-2.38,2.34-4.54,4.15-6.34
		c0.6-0.6,1.24-1.16,1.9-1.67c2.2-1.65,7.48-4.18,10.34-2.62c0.07,0.04,0.14,0.08,0.2,0.12c0.2,0.13,0.39,0.29,0.56,0.46
		c0.17,0.18,0.32,0.38,0.46,0.61v0c1.33,0.5,2.44,1.21,3.36,2.07c0.1,0.1,0.2,0.2,0.29,0.29c3.59,3.7,3.77,9.91,1.79,14.86
		c-0.07,0.2-0.16,0.39-0.25,0.58c-0.07,0.16-0.14,0.31-0.21,0.46c-0.2,0.41-0.41,0.81-0.64,1.2c-0.16,0.28-0.32,0.55-0.5,0.81
		c-0.07,0.11-0.15,0.21-0.23,0.32c-0.08,0.11-0.16,0.22-0.25,0.32c-0.11,0.14-0.23,0.28-0.35,0.42c-0.16,0.19-0.33,0.37-0.52,0.54v0
		c-0.43,0.43-0.88,0.81-1.36,1.16c-0.16,0.12-0.32,0.23-0.49,0.34c0,0,0,0,0,0c-0.19,0.12-0.38,0.24-0.58,0.36
		c-0.1,0.06-0.2,0.12-0.3,0.18c-0.2,0.11-0.4,0.21-0.61,0.31c-0.21,0.1-0.42,0.2-0.63,0.29c-0.21,0.09-0.42,0.17-0.64,0.25
		c-0.11,0.04-0.22,0.08-0.33,0.12c-0.2,0.07-0.41,0.13-0.62,0.2c-1.46,0.43-2.99,0.64-4.52,0.64
		C588.71,250.98,587.31,250.81,585.99,250.46z"/>
	<path class="st0" d="M669.85,282.37c-13.76-1.04-27.1-5.04-40.44-8.34c-5.1-1.3-10.23-2.51-15.33-3.83c0,0,0,0,0,0
		c-3.18-0.83-6.36-1.7-9.5-2.64c0,0,0,0,0,0c-1.89-0.57-3.77-1.18-5.63-1.82h0c-1-0.35-2-0.71-2.98-1.09
		c-0.66-0.25-1.31-0.5-1.96-0.76h0c-0.98-0.39-1.94-0.79-2.9-1.2c0,0,0,0,0,0c-1.93-0.82-3.83-1.67-5.72-2.55h0
		c-0.63-0.3-1.25-0.59-1.88-0.89h0c-0.62-0.3-1.25-0.61-1.88-0.91c0,0,0,0,0,0c-0.62-0.31-1.25-0.61-1.88-0.92s-1.25-0.62-1.88-0.93
		c-0.93-0.47-1.87-0.95-2.81-1.42c-0.32-0.16-0.63-0.32-0.95-0.48c-0.62-0.32-1.25-0.64-1.88-0.96c0,0,0,0,0,0
		c-1.26-0.64-2.52-1.28-3.79-1.92c-5.75-2.91-11.67-5.8-17.48-8.91c0,0,0,0,0,0c-3.22-1.73-6.41-3.52-9.52-5.43
		c-1.24-0.76-2.48-1.54-3.69-2.34c-0.59-0.46-1.21-0.91-1.83-1.37c-0.16-0.12-0.31-0.23-0.46-0.35c0,0,0,0,0,0
		c-0.15-0.12-0.3-0.24-0.46-0.36h0c-0.15-0.12-0.3-0.24-0.45-0.36c0,0,0,0,0,0c-0.15-0.12-0.3-0.25-0.44-0.38h0
		c-0.22-0.19-0.43-0.38-0.64-0.58c0,0,0,0,0,0c-0.9-0.87-1.66-1.84-2.14-2.99c0-0.13,0-0.26,0.02-0.39
		c0.01-0.06,0.01-0.12,0.02-0.18c0-0.02,0-0.03,0-0.05c0.04-0.24,0.09-0.48,0.15-0.72c0.02-0.06,0.04-0.12,0.06-0.18
		c0.02-0.07,0.04-0.13,0.06-0.19c0.01-0.02,0.01-0.04,0.02-0.05c0,0,0,0,0-0.01c0.02-0.06,0.04-0.12,0.07-0.18
		c0.01-0.02,0.02-0.04,0.03-0.07c0.02-0.04,0.04-0.09,0.05-0.13c0.01-0.02,0.02-0.04,0.03-0.07c0.03-0.06,0.06-0.12,0.09-0.18
		c0.01-0.01,0.01-0.02,0.02-0.04c0.04-0.07,0.07-0.14,0.11-0.22c0.04-0.08,0.08-0.15,0.12-0.23c0.1-0.18,0.2-0.36,0.3-0.54
		c0.04-0.06,0.07-0.12,0.11-0.18c0.07-0.12,0.14-0.23,0.21-0.35c0,0,0,0,0,0c0.04-0.06,0.07-0.12,0.11-0.18
		c0.07-0.12,0.14-0.23,0.21-0.35c0.02-0.03,0.04-0.06,0.06-0.09c0.05-0.09,0.11-0.17,0.16-0.26c0,0,0,0,0,0
		c0.04-0.06,0.07-0.12,0.11-0.18c0.03-0.06,0.07-0.12,0.1-0.17c0.07-0.11,0.14-0.23,0.2-0.34c0,0,0,0,0,0
		c0.07-0.12,0.13-0.23,0.19-0.35c0.02-0.04,0.05-0.07,0.07-0.11c1.73-2.79,3.5-5.54,5.3-8.28c0.7-1.07,1.41-2.14,2.12-3.21
		c3.27-4.94,6.6-9.84,9.86-14.79c10.23-14.68,19.43-29.98,29.14-44.96c0.84-1.3,1.69-2.61,2.54-3.9c2.99-4.55,6.03-9.05,9.18-13.5
		c4.39-5.96,9.11-11.67,13.91-17.3c1.2-1.41,2.4-2.81,3.61-4.21c0.59-0.69,1.18-1.37,1.76-2.06c1.02-1.19,2.04-2.38,3.05-3.57
		c0.4-0.47,0.8-0.94,1.2-1.41c1.2-1.41,2.39-2.82,3.56-4.25c0,0,0,0,0,0c1.18-1.42,2.35-2.86,3.5-4.3c0.77-0.96,1.54-1.93,2.3-2.91
		c0.75-0.97,1.5-1.95,2.24-2.93c0.74-0.98,1.47-1.98,2.2-2.98c0,0,0,0,0,0c0.13,9.55-0.09,19.15,1.05,28.66
		c1.33,10.54,3.59,20.93,5.6,31.35c0.97,5.34,1.88,10.7,2.79,16.05v0c0.69,4.02,1.37,8.03,2.08,12.04c0.24,1.34,0.48,2.67,0.72,4.01
		c0,0,0,0,0,0c0.12,0.67,0.25,1.34,0.37,2c0.25,1.34,0.5,2.67,0.76,4c0.13,0.67,0.26,1.34,0.39,2c0.27,1.33,0.54,2.66,0.82,3.98
		c0,0,0,0,0,0c0.28,1.33,0.57,2.65,0.86,3.98v0c1.18,5.3,2.49,10.57,3.99,15.8c0.29,0.97,0.57,1.94,0.84,2.91
		c0.9,3.12,1.79,6.25,2.68,9.39c0.89,3.13,1.77,6.26,2.67,9.39c0.41,1.45,0.83,2.89,1.25,4.34c0.21,0.72,0.42,1.45,0.64,2.16
		c0.32,1.08,0.64,2.16,0.97,3.24c0.32,1.08,0.65,2.16,0.99,3.24c0.26,0.83,0.52,1.66,0.78,2.49c0.1,0.33,0.2,0.65,0.31,0.98
		c0.02,0.06,0.04,0.11,0.05,0.17c0.06,0.19,0.12,0.37,0.18,0.55c0.03,0.09,0.05,0.17,0.08,0.25c0.06,0.18,0.11,0.36,0.17,0.53
		c0.37,1.14,0.75,2.29,1.12,3.43c0.19,0.57,0.38,1.14,0.58,1.71c0.19,0.57,0.39,1.14,0.59,1.7c1.84,5.04,3.84,10.02,5.64,15.07
		C669.35,276.35,670.2,279.38,669.85,282.37L669.85,282.37z M586.14,226.67c-0.66,0.51-1.3,1.07-1.9,1.67
		c-1.81,1.8-3.29,3.96-4.15,6.34c-0.49,1.21-0.81,2.55-0.94,3.92c0,0.03,0,0.05-0.01,0.08c-0.02,0.22-0.04,0.45-0.05,0.67
		c-0.01,0.11-0.01,0.21-0.01,0.32c-0.02,0.72,0.01,1.44,0.09,2.15c0.01,0.1,0.02,0.2,0.04,0.3c0.01,0.08,0.02,0.16,0.04,0.24
		c0.02,0.12,0.04,0.25,0.06,0.37c0.02,0.09,0.04,0.19,0.05,0.29c0.02,0.12,0.05,0.24,0.08,0.36c0.02,0.1,0.05,0.2,0.07,0.3
		c0,0.02,0.01,0.03,0.01,0.05c0.45,1.7,1.25,3.25,2.43,4.47c0.32,0.34,0.68,0.64,1.06,0.92c0.15,0.11,0.31,0.21,0.47,0.32
		c0.08,0.05,0.16,0.1,0.25,0.15c0.25,0.14,0.51,0.27,0.79,0.39c0.46,0.2,0.95,0.36,1.46,0.48c2.77,0.73,5.85,0.71,8.64-0.11
		c0.21-0.06,0.41-0.12,0.62-0.2c0.11-0.04,0.22-0.07,0.33-0.12c0.21-0.08,0.43-0.16,0.64-0.25c0.21-0.09,0.43-0.19,0.63-0.29
		c0.2-0.1,0.41-0.2,0.61-0.31c0.1-0.06,0.2-0.11,0.3-0.18c0.2-0.11,0.39-0.23,0.58-0.36c0,0,0,0,0,0c0.17-0.11,0.33-0.22,0.49-0.34
		c0.48-0.36,0.94-0.74,1.36-1.17c0.18-0.18,0.35-0.36,0.52-0.54c0.12-0.14,0.23-0.28,0.35-0.42c0.09-0.11,0.17-0.21,0.25-0.32
		c0.08-0.11,0.15-0.21,0.23-0.32c0.18-0.26,0.35-0.53,0.5-0.81c0.23-0.39,0.44-0.79,0.64-1.2c0.08-0.15,0.15-0.31,0.21-0.46
		c0.09-0.19,0.17-0.39,0.25-0.58c1.98-4.95,1.8-11.16-1.79-14.86c-0.09-0.1-0.19-0.2-0.29-0.29c-0.91-0.86-2.02-1.57-3.36-2.08
		c-0.14-0.23-0.29-0.43-0.46-0.61s-0.36-0.33-0.56-0.46c-0.07-0.04-0.13-0.08-0.2-0.12c-0.63-0.35-1.38-0.49-2.18-0.49
		C591.44,223.57,587.85,225.39,586.14,226.67z M617.29,131.4c-0.37,0.02-0.74,0.04-1.1,0.06c-0.38,0.02-0.75,0.05-1.11,0.07
		c-0.47,0.04-0.92,0.07-1.34,0.11c-0.21,0.02-0.41,0.04-0.61,0.05c-9.38,0.48-12.05,11.07-13.96,18.61
		c-3.13,13.28-4.18,26.93-5.75,40.45c-0.59,5.32-1.18,10.52-1.51,15.88c-0.46,0.96-0.74,2.14-0.14,3.09c0,0.11,0,0.22-0.01,0.33
		c0.03,1.64,1.25,2.46,2.48,2.46c1.24,0,2.48-0.83,2.52-2.46c-0.22-2,0.72-3.55,1.62-5.29c4.54-8.93,8.95-17.94,13.41-26.93
		c4.73-9.53,9.27-19.15,13.33-28.99c1.29-3.98,5.2-9.96,3.38-14c-0.21-0.35-0.46-0.67-0.73-0.96c-0.28-0.29-0.59-0.54-0.93-0.77
		c-0.43-0.29-0.89-0.53-1.39-0.73c-0.3-0.12-0.61-0.23-0.93-0.33c-0.21-0.06-0.43-0.12-0.65-0.18c0,0,0,0,0,0
		c-0.22-0.05-0.45-0.1-0.67-0.14c-0.69-0.13-1.4-0.22-2.12-0.27c-0.24-0.02-0.48-0.04-0.72-0.05c-0.49-0.02-0.98-0.03-1.47-0.03
		C618.33,131.37,617.81,131.38,617.29,131.4z"/>
	<path class="st0" d="M681.22,302.3c-0.05,0-0.11,0-0.16-0.01c-6.14-0.64-12.09-2.79-18.14-4.05c-11.11-2.68-21.95-6.04-32.73-9.83
		c-12.62-4.52-25.61-8-37.97-13.2c-0.57-0.24-1.14-0.48-1.7-0.73c-0.65-0.28-1.3-0.56-1.95-0.84c-0.36-0.15-0.72-0.31-1.07-0.47
		c-0.61-0.27-1.22-0.54-1.82-0.81c-1.24-0.55-2.48-1.11-3.72-1.68c-0.83-0.38-1.66-0.76-2.48-1.14s-1.65-0.77-2.48-1.16
		c-2.29-1.08-4.57-2.18-6.84-3.29c-1.14-0.55-2.27-1.11-3.41-1.68c-2.15-1.07-4.3-2.15-6.45-3.24c-2.71-1.38-5.43-2.77-8.13-4.18
		c-0.78-0.4-1.55-0.8-2.33-1.21c-5.12-2.73-10.28-5.44-15.35-8.29c-5.07-2.86-10.05-5.86-14.82-9.19c-1.18-0.9-2.33-1.83-3.37-2.88
		c-0.15-0.15-0.3-0.3-0.44-0.46c-0.45-0.61-1.25-1.3-0.89-2.13c0.18-0.37,0.36-0.73,0.55-1.09c0.24-0.47,0.49-0.94,0.74-1.4
		c0.14-0.25,0.28-0.5,0.42-0.76c0.02-0.03,0.04-0.06,0.05-0.09c0.32-0.57,0.66-1.13,0.99-1.69c0.07-0.12,0.15-0.25,0.22-0.38
		c0.05-0.08,0.1-0.16,0.14-0.24c0.36-0.61,0.73-1.21,1.09-1.81c0.21-0.35,0.42-0.7,0.63-1.05c0.04-0.07,0.09-0.14,0.13-0.22
		c0.25-0.41,0.49-0.82,0.73-1.23c0.62-0.99,1.24-1.98,1.86-2.97c0.01-0.01,0.02-0.02,0.02-0.04c0.43-0.7,0.87-1.4,1.3-2.11
		c1.75-2.86,3.49-5.74,5.22-8.62c1.46-2.44,2.93-4.88,4.4-7.32c0.63-1.05,1.27-2.11,1.92-3.16c0.49-0.82,0.99-1.63,1.5-2.45v0
		c0.5-0.82,1.01-1.64,1.53-2.46c0.82-1.32,1.64-2.63,2.48-3.93c0.9-1.41,1.82-2.82,2.75-4.22c21.77-31.32,45.05-61.66,67.73-92.35
		c4.88-6.5,9.67-13.05,14.43-19.63c1.45-2.01,2.91-4.02,4.48-5.94v0c0.08-0.08,0.16-0.16,0.25-0.23c0.59-0.59,1.12-1.3,1.07-2.17
		c0.38-0.5,0.71-1.09,1.16-1.54c0.07-0.07,0.15-0.14,0.23-0.21c0,0,0,0,0,0c0.08-0.07,0.17-0.13,0.26-0.19v0
		c1.78,2.57,2.54,5.62,3.64,8.53c1.53,4.42,2.93,9,4.09,13.65c3.14,12.62,5.3,25.45,8.07,38.18c3.43,16.68,6,33.53,9.07,50.27
		c3.13,15.9,7.07,31.64,11.32,47.28v0c0.39,1.39,0.79,2.78,1.17,4.17c0.39,1.39,0.77,2.78,1.15,4.17c0.64,2.37,1.27,4.74,1.88,7.12
		c0.21,0.83,0.43,1.67,0.63,2.51c0.19,0.76,0.38,1.52,0.56,2.28c0.11,0.44,0.21,0.88,0.32,1.32c0.17,0.7,0.34,1.41,0.5,2.11
		c0.1,0.41,0.2,0.83,0.29,1.25c0.14,0.62,0.29,1.25,0.43,1.88v0c0.1,0.43,0.2,0.86,0.29,1.3c0.04,0.15,0.07,0.3,0.1,0.45
		c0.07,0.28,0.12,0.57,0.19,0.85c0.14,0.67,0.29,1.35,0.43,2.02c0.02,0.11,0.04,0.23,0.06,0.38v0c0.02,0.08,0.03,0.16,0.04,0.25
		c0.03,0.16,0.06,0.32,0.09,0.5s0.07,0.37,0.11,0.57c0.04,0.2,0.08,0.41,0.12,0.63c0.05,0.27,0.11,0.55,0.16,0.85
		c0.04,0.2,0.08,0.41,0.12,0.62c0.04,0.21,0.08,0.42,0.12,0.64c0.04,0.17,0.07,0.34,0.1,0.52c0.06,0.3,0.12,0.61,0.18,0.93
		c0.09,0.43,0.17,0.88,0.26,1.35c0.07,0.36,0.14,0.72,0.21,1.09c0.06,0.3,0.12,0.61,0.18,0.93c0.18,0.91,0.36,1.86,0.54,2.85
		c0.04,0.24,0.09,0.48,0.13,0.72c0.25,1.36,0.51,2.77,0.77,4.23c0.03,0.13,0.05,0.27,0.07,0.4c0.09,0.48,0.17,0.97,0.26,1.47
		c0.05,0.26,0.09,0.53,0.14,0.79c0.09,0.53,0.18,1.06,0.27,1.6c0.09,0.51,0.17,1.03,0.25,1.54c0.14,0.83,0.27,1.67,0.4,2.5
		c0.04,0.27,0.08,0.54,0.12,0.81c0.06,0.39,0.12,0.79,0.18,1.18c0.06,0.41,0.12,0.83,0.18,1.25c0,0,0,0.01,0,0.02
		c0.07,0.49,0.14,0.98,0.2,1.46c0.02,0.19,0.05,0.38,0.07,0.57c0.05,0.38,0.1,0.76,0.14,1.14c0.02,0.16,0.04,0.32,0.06,0.48
		c0.04,0.36,0.09,0.72,0.13,1.08c0.09,0.77,0.17,1.53,0.24,2.28c0.02,0.25,0.05,0.5,0.07,0.74c0.07,0.73,0.13,1.46,0.18,2.16
		c0.23,3.31,0.26,6.19-0.04,8.31c-0.05,0.32-0.1,0.62-0.16,0.91c-0.02,0.09-0.04,0.19-0.06,0.28c-0.07,0.27-0.14,0.53-0.22,0.76
		c-0.05,0.16-0.11,0.3-0.17,0.44c-0.06,0.13-0.12,0.26-0.19,0.38c-0.07,0.12-0.14,0.23-0.22,0.33c-0.08,0.1-0.16,0.18-0.24,0.26
		C681.97,302.16,681.63,302.3,681.22,302.3C681.22,302.3,681.22,302.3,681.22,302.3z M629.69,80.46c-0.46,0.01-0.83,0.15-1.14,0.38
		c-0.7,0.49-1.12,1.38-1.61,2.11c-2.62,3.82-5.36,7.59-8.33,11.15c-9.89,11.86-20.18,23.39-29.57,35.66
		c-12.72,17.35-23.17,36.2-35.32,53.95c-7.27,10.94-14.66,21.8-21.8,32.82c-0.23,0.37-0.46,0.73-0.69,1.1
		c-0.23,0.37-0.47,0.74-0.71,1.11c-0.16,0.25-0.32,0.5-0.48,0.74s-0.32,0.5-0.47,0.74c-0.08,0.12-0.16,0.25-0.23,0.37
		c-0.08,0.12-0.15,0.24-0.23,0.36c0,0,0,0,0,0.01c-0.08,0.14-0.17,0.27-0.25,0.41c-0.03,0.05-0.06,0.1-0.09,0.15
		c-0.04,0.06-0.07,0.12-0.11,0.19c-0.14,0.24-0.28,0.48-0.41,0.72c0,0.01-0.01,0.02-0.02,0.03c-0.07,0.12-0.13,0.24-0.2,0.36
		c-0.02,0.04-0.04,0.07-0.06,0.11c-0.21,0.39-0.4,0.79-0.58,1.19c-0.02,0.04-0.03,0.07-0.05,0.1c-0.18,0.4-0.34,0.8-0.47,1.21
		c-0.01,0.02-0.01,0.04-0.02,0.05c-0.97,2.91-0.76,5.84,2.17,8.79c0.07,0.07,0.13,0.13,0.2,0.2c0.07,0.07,0.14,0.13,0.21,0.2
		c1.54,1.5,3.21,2.86,4.95,4.11c0.58,0.42,1.17,0.82,1.77,1.22c1.2,0.79,2.42,1.55,3.65,2.28c0.31,0.18,0.62,0.36,0.93,0.54
		c0.62,0.36,1.24,0.71,1.87,1.07c0.31,0.18,0.62,0.35,0.93,0.52c0.43,0.24,0.87,0.48,1.3,0.73c0.44,0.24,0.88,0.48,1.31,0.72
		c0.88,0.48,1.75,0.95,2.63,1.42c1.76,0.94,3.52,1.86,5.29,2.77c0.89,0.46,1.77,0.91,2.66,1.36c2.66,1.36,5.33,2.69,8,4.03
		c1.67,0.83,3.32,1.67,4.98,2.51s3.32,1.69,4.98,2.53s3.33,1.68,5,2.49c2.23,1.09,4.47,2.16,6.74,3.17c1.14,0.5,2.27,1,3.42,1.48
		c0.57,0.24,1.14,0.47,1.72,0.7c1.84,0.74,3.7,1.43,5.57,2.08c1.64,0.57,3.29,1.1,4.94,1.62c0.55,0.17,1.1,0.34,1.66,0.5
		c0.32,0.09,0.63,0.19,0.95,0.28c0.64,0.18,1.27,0.37,1.9,0.55c0.95,0.27,1.91,0.53,2.87,0.79c1.04,0.28,2.07,0.55,3.11,0.82
		c1.04,0.27,2.08,0.53,3.12,0.8c0.52,0.13,1.04,0.26,1.56,0.39c1.04,0.26,2.09,0.52,3.12,0.77c0.52,0.12,1.04,0.25,1.56,0.38
		c1.45,0.36,2.9,0.72,4.36,1.09c1.93,0.49,3.87,0.99,5.8,1.49c0.48,0.12,0.97,0.25,1.45,0.38c0.97,0.25,1.94,0.5,2.91,0.75
		c2.42,0.62,4.84,1.23,7.27,1.81c0.48,0.12,0.97,0.23,1.46,0.35c0.97,0.23,1.95,0.45,2.92,0.68c0.43,0.1,0.85,0.19,1.28,0.29
		c0.85,0.19,1.71,0.37,2.56,0.55c0.85,0.18,1.71,0.35,2.57,0.52c4.71,0.92,9.46,1.66,14.25,2.12c1.3,0.07,2.35-0.07,3.2-0.42h0
		c0.31-0.13,0.6-0.28,0.86-0.46c0,0,0,0,0,0c0.13-0.09,0.25-0.19,0.37-0.29c0.05-0.05,0.11-0.1,0.17-0.16
		c5.66-5.48-5.46-26.19-6.89-32.05c-0.22-0.72-0.45-1.44-0.67-2.16c-0.06-0.18-0.11-0.37-0.17-0.55c-0.46-1.48-0.91-2.95-1.37-4.43
		c-0.03-0.09-0.06-0.18-0.08-0.26c-0.43-1.41-0.87-2.82-1.3-4.24c-1.15-3.75-2.29-7.51-3.4-11.28c-0.42-1.42-0.84-2.84-1.25-4.27
		c-0.47-1.6-0.93-3.2-1.38-4.8c-0.21-0.75-0.43-1.51-0.64-2.27c-0.19-0.66-0.37-1.33-0.56-1.99c-0.09-0.33-0.18-0.66-0.27-0.98
		c-0.34-1.22-0.67-2.44-1-3.66c-0.04-0.14-0.07-0.27-0.11-0.41c-0.19-0.69-0.37-1.37-0.55-2.06c-0.18-0.67-0.36-1.35-0.53-2.02
		c-0.39-1.46-0.76-2.92-1.13-4.38c-0.13-0.53-0.27-1.06-0.39-1.59c-0.48-1.91-0.94-3.82-1.39-5.73c-0.18-0.77-0.36-1.53-0.53-2.3
		c-0.16-0.69-0.32-1.39-0.47-2.08c-0.12-0.51-0.23-1.02-0.34-1.54c-0.13-0.58-0.26-1.16-0.38-1.75c-0.03-0.15-0.06-0.29-0.09-0.44
		c-0.12-0.56-0.24-1.12-0.36-1.68c-0.1-0.49-0.2-0.98-0.3-1.46c-0.14-0.66-0.27-1.31-0.4-1.97c-0.14-0.7-0.28-1.39-0.41-2.09
		c-0.1-0.5-0.2-1.01-0.29-1.52c-0.11-0.54-0.2-1.08-0.3-1.62c-0.14-0.77-0.28-1.55-0.41-2.32c-0.14-0.77-0.27-1.54-0.4-2.32
		c-2.45-15.99-5.67-31.83-8.61-47.73c-2.58-12.92-2.46-26.1-2.55-39.21c-0.03-1.78-0.05-3.55-0.21-5.32
		c-0.11-1.35-1.33-2.13-2.53-2.13C630.9,79.42,630.13,79.75,629.69,80.46z"/>
	<path class="st3" d="M212.85,315.45c-3.13-0.23-6.96-1.21-8.23-4.19c-0.17-0.4-0.29-0.84-0.36-1.31
		c-1.3-5.89-2.01-11.88-2.56-17.88c-0.15-1.64-0.29-3.27-0.43-4.91c-0.22-2.65-0.43-5.29-0.67-7.93c-0.04-0.56-0.09-1.12-0.14-1.69
		c-6.78,1.36-13.59,2.57-20.43,3.61c-16.37,2.36-32.9,4.95-49.48,4.46c-13.16-0.47-18.82-4.45-17.62-18.29
		c0.34-10.74,0.98-21.48,1.12-32.23c0.18-11.02,0.07-22.03,0.43-33.04c0.6-10.77,0.52-22.77,7.61-31.6
		c7.36-8.84,22.89-11.7,33.58-15.2c28.28-7.79,56.87-14.37,85.48-20.8c0.23-0.99,1.04-1.82,2.09-1.95c2.61-0.31,5.24-0.66,7.87-0.79
		c2.81-0.15,5.8,0.24,8.05,2.09c11.11,11.46,20.09,25.15,25.64,40.16c5.68,15.57,8.6,31.99,10.64,48.39
		c0.75,8.25,2.02,18.21-4.37,24.63c-4.63,4.23-10.73,6.41-16.38,8.96c-4.94,2.07-9.97,3.98-15.05,5.69
		c-14.57,4.92-29.38,9.16-44.35,12.67c0.33,1.09,0.65,2.17,0.97,3.26c0.97,3.29,2.03,6.55,3.05,9.83c0.53,1.71,1.05,3.41,1.54,5.13
		c1.14,4,2.12,8.04,2.71,12.17c0.11,0.8,0.19,1.55,0.23,2.25c0.14,2.38-0.14,4.22-0.91,5.58c-0.21,0.07-0.41,0.14-0.62,0.21
		c-0.62,0.21-1.24,0.42-1.86,0.62c-0.21,0.07-0.41,0.13-0.62,0.2c-0.42,0.13-0.83,0.27-1.25,0.39c-1.03,0.32-2.06,0.62-3.1,0.88
		c-0.18,0.05-0.36,0.09-0.54,0.14c-0.15,0.04-0.3,0.08-0.46,0.11c-0.14,0.04-0.29,0.07-0.44,0.1
		C213.61,315.3,213.23,315.38,212.85,315.45L212.85,315.45z M122.51,279.37c0.17,0.06,0.33,0.12,0.5,0.18
		c0.34,0.12,0.68,0.22,1.02,0.31s0.69,0.17,1.05,0.25c3.53,0.72,7.45,0.47,10.86,0.62c20.79-0.98,41.54-3.67,62.02-7.76
		c0.66-0.13,1.33-0.26,1.99-0.4c0.82-0.17,1.64-0.34,2.46-0.51c0.82-0.17,1.64-0.34,2.46-0.52c1.37-0.29,2.73-0.59,4.1-0.9
		c0.12-0.03,0.24-0.05,0.36-0.08c0.7-0.16,1.39-0.32,2.08-0.48c0.81-0.18,1.62-0.38,2.44-0.57c14.98-3.54,29.79-7.79,44.32-12.62
		c7.62-3.02,27.71-9.06,31.26-15.96c4.72-9.25-2.51-40.82-5.14-51.82c-3.21-12.32-7.99-24.31-15.11-34.91
		c-3.6-5.26-7.57-10.29-11.76-15.08c-0.46-0.67-1.01-1.17-1.61-1.53c-0.6-0.36-1.26-0.59-1.95-0.73c-0.62-0.12-1.28-0.17-1.94-0.17
		c0,0-0.01,0-0.01,0c-0.36,0-0.72,0.02-1.08,0.04c-0.19,0.01-0.37,0.03-0.56,0.04c-0.91,0.08-1.8,0.2-2.65,0.29
		c-0.3,0.64-0.88,1.15-1.6,1.38c-2.56,0.7-5.18,1.21-7.76,1.86c-8,1.85-16.05,3.52-24.06,5.37c-21.05,5.21-42.23,10.02-63.05,16.15
		c-7.21,2.34-14.75,4.25-21.26,8.27c-7.86,5.13-9.23,15.13-9.98,23.76c-0.75,10.7-0.65,21.43-0.76,32.15
		c-0.02,13.29-0.64,26.55-1.18,39.83c0.12,3.84-0.98,8.34,1.38,11.67c0.68,0.59,1.43,1.08,2.21,1.47c0,0,0,0,0,0
		C121.86,279.1,122.19,279.24,122.51,279.37z"/>
	<path class="st3" d="M401.33,245.2c0.04-0.62,0.08-1.24,0.12-1.86c0.11-1.68,0.23-3.36,0.34-5c0.07-1.07,0.14-2.13,0.21-3.18
		c0.95-15.51,1.68-31.04,1.94-46.57c-11.77-2.12-23.47-4.71-35.11-7.46c-4.25-0.95-8.48-2.16-12.82-2.72
		c-0.91-0.1-1.9-0.05-2.75-0.47c-1.66-0.68-2.08-3.07-0.64-4.2c-0.43-3.09,0.88-6.27,1.42-9.31c0.66-2.86,1.32-5.72,1.95-8.59
		c2.18-10.43,3.39-21.03,4.86-31.57c1.52-10.78,3.33-21.52,4.69-32.32c0.67-5.31,1.28-10.62,1.91-15.93
		c0.42-2.32,0.12-5.14,1.83-6.97c3.54-2.89,8.91-2.05,13.21-2.56c10.84-0.43,21.7,0.05,32.55,0.29c16.44,0.64,32.97,0.44,49.32,2.5
		c5.12,0.74,10.3,1.34,15.36,2.49c7.75,1.54,5.95,11.18,6.03,17.09c-1.12,27.18-7.03,53.83-11.92,80.51
		c-1.18,6.32-2.06,12.7-3.28,19.02c-0.24,4.65-5.16,5.36-8.92,5.49c-4.04,0.22-8.09,0.19-12.12-0.03
		c-11.54-0.42-22.98-1.63-34.36-3.36c-0.01,0.19-0.02,0.38-0.04,0.57c-0.8,14.45-1,28.93-1.06,43.39c0,0.7,0,1.39,0,2.09
		c0,0.69,0,1.37,0,2.06c-0.05,0.61-0.07,1.36-0.07,2.2c-0.08,0.06-0.16,0.12-0.23,0.19c-0.38,0.29-0.75,0.59-1.12,0.89
		c-0.2,0.16-0.4,0.32-0.6,0.49c-0.21,0.17-0.43,0.35-0.64,0.53c0,0,0,0,0,0c-0.57,0.48-1.14,0.95-1.7,1.44
		c-0.04,0.03-0.07,0.05-0.1,0.09c-1.17,1.01-2.32,2.04-3.45,3.1c-0.07,0.07-0.15,0.14-0.23,0.21c-0.22,0.21-0.45,0.42-0.67,0.63
		c-0.04,0.04-0.09,0.08-0.13,0.12c-0.12,0.11-0.24,0.23-0.36,0.34c-0.36,0.34-0.71,0.68-1.05,1.03c-0.91,0.9-1.82,1.82-2.7,2.75
		c-0.06,0.06-0.11,0.11-0.17,0.17C400.99,250.24,401.15,247.71,401.33,245.2z M388.2,71.33c-5.07,0.24-10.27-0.04-15.22,1.18
		c-2.42,21.46-5.83,42.79-8.75,64.19c-0.73,5.42-1.55,10.82-2.54,16.2c-1.21,6.93-3.38,13.67-4.29,20.65
		c15.59,3.1,31,7.13,46.62,10.07c0.56,0.11,1.12,0.21,1.67,0.31c0.49,0.09,0.98,0.18,1.46,0.27c0.62,0.11,1.24,0.21,1.86,0.32
		c0.52,0.09,1.03,0.17,1.55,0.26c0.47,0.08,0.95,0.16,1.42,0.23c0.85,0.14,1.7,0.27,2.55,0.39c0.32,0.05,0.64,0.1,0.97,0.14
		c12.25,1.8,24.6,2.93,36.96,3.4c4.34,0.01,8.8,0.39,13.03-0.73c4.98-30.82,12.54-61.31,14.87-92.52c0.34-5.07,0.71-10.17,0.41-15.2
		c-0.32-2.53-0.25-3.77-3.18-4.11c-18.58-3.7-37.57-3.94-56.43-4.44c-9.98-0.26-19.97-0.62-29.95-0.62
		C390.21,71.32,389.21,71.32,388.2,71.33z"/>
	<path class="st3" d="M576.82,392.78c-2.07-0.3-3.25-2.04-4.38-3.63c-1.51-2.13-3-4.28-4.44-6.47c-2.92-4.53-5.78-9.16-7.81-14.16
		c-3.19-6.62-1.14-10.83,0.43-17.44c1.25-5.13,2.56-10.25,3.95-15.34c3.34-11.61,6.66-23.27,8.96-35.13v0
		c0.32-1.64,0.62-3.29,0.9-4.94c0.28-1.68,0.54-3.36,0.78-5.05c0.76-5.57,1.27-11.19,1.57-16.8c-0.7-0.34-1.4-0.68-2.09-1.02
		c-10.11-4.8-20.11-9.82-30-15.06c-10.61-5.91-21.88-11.16-31.2-19.07c-5.69-5-3.62-8.63-0.14-14.21c0.48-0.81,0.96-1.61,1.44-2.41
		v0c0.89-1.49,1.79-2.98,2.7-4.46c4.07-6.68,8.24-13.31,12.21-20.05c9.02-15.41,19.54-29.87,30.19-44.18
		c22.27-30.1,44.49-60.25,66.91-90.23c0.52-2.11,2.29-4,4.09-5.16c4.04-2.48,7.28,1.62,8.5,5.18c4.57,11.31,7.41,22.98,9.79,34.86
		c3.8,18.91,7.8,37.78,10.9,56.82c2.77,18.02,6.83,35.67,11.35,53.29c3.55,12.97,7.13,25.94,10.09,39.04
		c0.38,1.67,0.75,3.35,1.1,5.02c1.32,6.23,2.48,12.51,3.42,18.83c0.91,5.51,1.65,11.05,2.27,16.61c0.8,7.42,2.13,21.18-9.12,19.6
		c-19.95-4.12-39.58-10-58.72-16.84c-10.24-3.18-20.4-6.6-30.32-10.63c-0.36,5.68-0.55,11.34-0.68,17.02
		c-0.04,1.68-0.07,3.37-0.1,5.05v0c-0.07,3.92-0.12,7.85-0.19,11.8c-0.43,14.01-1.48,27.98-2.84,41.93
		c-0.79,7.93-1.64,15.86-2.55,23.78c-0.83,4.41-0.3,13.51-6.35,13.51C577.22,392.8,577.03,392.79,576.82,392.78z M632.78,62.73
		c-0.46,0.45-0.78,1.03-1.16,1.54c0.05,0.87-0.48,1.58-1.07,2.17c-0.08,0.08-0.16,0.16-0.25,0.24c-1.57,1.92-3.03,3.93-4.48,5.94
		c-4.76,6.58-9.55,13.13-14.43,19.63c-22.67,30.69-45.96,61.02-67.73,92.35c-0.93,1.4-1.84,2.81-2.75,4.22
		c-0.32,0.49-0.63,0.98-0.94,1.48c-0.52,0.82-1.04,1.64-1.55,2.46c-0.51,0.82-1.02,1.64-1.53,2.46v0c-0.5,0.82-1,1.63-1.5,2.45
		c-0.64,1.05-1.29,2.11-1.92,3.16c-1.47,2.44-2.93,4.88-4.4,7.32c-1.73,2.88-3.46,5.76-5.22,8.62c-0.43,0.69-0.85,1.38-1.28,2.07
		c-0.01,0.01-0.02,0.03-0.02,0.04c-0.01,0.01-0.02,0.02-0.02,0.04c-0.62,0.99-1.23,1.98-1.86,2.97c-0.24,0.41-0.48,0.82-0.73,1.23
		c-0.05,0.07-0.09,0.14-0.13,0.22c-0.21,0.35-0.42,0.7-0.63,1.05c-0.36,0.61-0.73,1.21-1.09,1.81c-0.05,0.08-0.1,0.16-0.14,0.24
		c-0.07,0.12-0.15,0.25-0.22,0.38c-0.33,0.56-0.66,1.12-0.99,1.69c-0.02,0.03-0.04,0.06-0.05,0.09c-0.14,0.25-0.28,0.5-0.42,0.76
		c-0.25,0.46-0.5,0.93-0.74,1.4c-0.19,0.36-0.37,0.72-0.55,1.09c-0.36,0.83,0.43,1.52,0.89,2.13c0.14,0.16,0.29,0.31,0.44,0.46
		c1.04,1.05,2.2,1.99,3.37,2.89c4.77,3.33,9.75,6.33,14.82,9.18c5.07,2.86,10.23,5.56,15.35,8.3c0.77,0.4,1.55,0.8,2.33,1.2
		c2.7,1.4,5.41,2.79,8.13,4.18c2.14,1.09,4.29,2.17,6.45,3.24c0.19,0.1,0.38,0.19,0.57,0.29c0.83,0.41,1.67,0.82,2.5,1.23
		c0.11,0.05,0.22,0.11,0.33,0.16c1.14,0.56,2.27,1.12,3.41,1.66c1.14,0.55,2.28,1.09,3.43,1.63c0.41,0.2,0.82,0.39,1.24,0.58
		c0.41,0.2,0.82,0.39,1.24,0.58c0.83,0.39,1.65,0.77,2.48,1.14c1.23,0.57,2.48,1.12,3.72,1.68c0.54,0.25,1.09,0.48,1.63,0.72
		c0.12,0.05,0.25,0.11,0.37,0.16c0.22,0.09,0.44,0.19,0.66,0.29c0.08,0.04,0.16,0.07,0.24,0.11c0.65,0.28,1.3,0.56,1.95,0.84
		c0.57,0.25,1.13,0.49,1.7,0.73c12.37,5.2,25.36,8.69,37.97,13.2c10.77,3.79,21.62,7.14,32.73,9.83c6.05,1.27,12,3.42,18.14,4.05
		c0.05,0,0.11,0.01,0.16,0.01c0,0,0,0,0.01,0c0.4,0,0.75-0.14,1.05-0.41c0.08-0.07,0.16-0.16,0.24-0.26
		c0.08-0.1,0.15-0.21,0.22-0.33c0.07-0.12,0.13-0.25,0.19-0.38c0.06-0.14,0.12-0.29,0.17-0.44c0.08-0.23,0.16-0.48,0.22-0.76
		c0.02-0.09,0.04-0.18,0.06-0.28c0.06-0.29,0.11-0.59,0.16-0.91c0.21-1.53,0.26-3.46,0.18-5.66c-0.02-0.42-0.04-0.84-0.06-1.27
		c-0.02-0.26-0.03-0.52-0.05-0.79c-0.01-0.2-0.03-0.39-0.04-0.59c-0.05-0.7-0.11-1.42-0.18-2.16c0-0.06-0.01-0.12-0.02-0.19
		c-0.02-0.18-0.04-0.37-0.05-0.55c-0.07-0.75-0.15-1.5-0.24-2.28c-0.01-0.09-0.02-0.19-0.03-0.28c-0.03-0.27-0.06-0.53-0.1-0.8
		c-0.02-0.16-0.04-0.32-0.06-0.48c-0.01-0.11-0.02-0.22-0.04-0.33c-0.04-0.27-0.07-0.54-0.11-0.81c-0.02-0.19-0.05-0.38-0.07-0.57
		c-0.07-0.48-0.13-0.97-0.2-1.46c0,0,0-0.01,0-0.02c-0.02-0.14-0.04-0.28-0.06-0.42c-0.04-0.28-0.08-0.55-0.12-0.83
		c-0.06-0.39-0.11-0.78-0.18-1.18c-0.04-0.27-0.08-0.54-0.12-0.81c-0.13-0.84-0.26-1.67-0.4-2.5c-0.08-0.52-0.16-1.03-0.25-1.54
		c-0.09-0.54-0.18-1.07-0.27-1.6c-0.04-0.27-0.09-0.53-0.14-0.79c-0.09-0.5-0.17-0.98-0.26-1.47c-0.02-0.13-0.04-0.27-0.07-0.4
		c-0.26-1.45-0.52-2.87-0.77-4.23c-0.03-0.13-0.05-0.26-0.07-0.39c-0.02-0.11-0.04-0.22-0.06-0.33c-0.19-0.99-0.37-1.94-0.54-2.85
		c-0.06-0.32-0.12-0.62-0.18-0.93c-0.07-0.38-0.14-0.74-0.21-1.09c-0.09-0.46-0.18-0.91-0.26-1.35c-0.06-0.32-0.12-0.63-0.18-0.93
		c-0.04-0.18-0.07-0.35-0.1-0.52c-0.04-0.22-0.08-0.43-0.12-0.64c-0.04-0.21-0.08-0.43-0.12-0.62c-0.06-0.3-0.11-0.58-0.16-0.85
		c-0.04-0.22-0.08-0.43-0.12-0.63c-0.04-0.2-0.07-0.39-0.11-0.57s-0.06-0.35-0.09-0.5c0-0.01-0.01-0.02-0.01-0.03
		c-0.01-0.08-0.02-0.15-0.04-0.22v0c-0.03-0.14-0.05-0.27-0.06-0.38c-0.14-0.68-0.28-1.35-0.43-2.02c-0.06-0.29-0.12-0.57-0.19-0.85
		c-0.12-0.59-0.25-1.17-0.39-1.75v0c-0.14-0.63-0.28-1.25-0.43-1.88c-0.09-0.42-0.19-0.84-0.29-1.25c-0.16-0.7-0.33-1.41-0.5-2.11
		c-0.11-0.44-0.21-0.88-0.32-1.32c-0.18-0.76-0.37-1.52-0.56-2.28c-0.21-0.84-0.42-1.67-0.63-2.51c-0.61-2.38-1.24-4.75-1.88-7.12
		c-0.38-1.39-0.76-2.79-1.15-4.17c-0.39-1.39-0.77-2.78-1.17-4.17v0c-4.24-15.64-8.18-31.38-11.32-47.28
		c-3.07-16.74-5.63-33.59-9.07-50.27c-2.77-12.73-4.93-25.56-8.07-38.18c-1.16-4.65-2.56-9.23-4.09-13.65
		c-1.11-2.91-1.86-5.96-3.64-8.53c-0.09,0.06-0.18,0.12-0.26,0.18c0,0,0,0,0,0C632.94,62.59,632.86,62.66,632.78,62.73z"/>
	<path class="st0" d="M387.76,260.38c-0.87-0.32-1.73-0.64-2.58-0.95c-1.4-0.55-3.02-0.76-4.2-1.76c-2.07-2.13,0.59-5.25,2.93-3.97
		c-0.03-0.01-0.07-0.03-0.1-0.04c0.08,0.04,0.16,0.08,0.23,0.12c-0.05-0.04-0.09-0.06-0.14-0.08c2.55,1.05,4.9,1.92,7.08,2.63
		c1.88,0.61,3.63,1.09,5.3,1.47c-0.63,0.74-1.26,1.48-1.87,2.23c-0.52,0.63-1.03,1.26-1.54,1.9c-0.04,0.05-0.08,0.11-0.12,0.16
		C391.08,261.57,389.4,260.97,387.76,260.38z"/>
	<path class="st0" d="M183.13,317.6c-3.54-6.41,13.67-6.85,17.2-6.39c1.43,0.07,2.86,0.09,4.29,0.05c3.73-0.09,7.43-0.57,11.04-1.59
		c2.71-0.88,5.41-1.82,8.13-2.69c5.27-1.7,10.61-3.17,16.17-3.61c3.24-0.34,3.93,4.45,0.68,4.95c-2.31,0.21-4.59,0.61-6.86,1.07
		c-3.72,0.72-7.31,1.96-10.89,3.17c-0.21,0.07-0.41,0.14-0.62,0.21c-0.62,0.21-1.24,0.42-1.86,0.62c-0.21,0.07-0.41,0.13-0.62,0.2
		c-0.41,0.13-0.83,0.26-1.25,0.39c-1.03,0.32-2.06,0.62-3.1,0.88c-0.18,0.05-0.36,0.09-0.54,0.14c-0.15,0.04-0.3,0.08-0.46,0.11
		c-0.14,0.03-0.29,0.07-0.44,0.1c-0.38,0.08-0.76,0.16-1.14,0.24h0c-1.22,0.24-2.45,0.43-3.7,0.54c-2.87,0.42-5.78,0.31-8.68,0.2
		c-3.96-0.15-7.91-0.3-11.73,0.89c-0.71,0.3-1.51,0.46-2.09,0.97c-0.44,0.34-1,0.51-1.55,0.51
		C184.34,318.56,183.59,318.24,183.13,317.6z"/>
	<path class="st1" d="M304.13,381.6c-15.68-1.58-31.2-4.78-46.21-9.55c-26.39-9.21-44.55-17.23-73.56-14.79
		c-13.51,1.02-26.67,4.48-39.67,8.14c-0.16,0.05-0.32,0.09-0.49,0.14c-0.97,0.27-1.99-0.1-2.6-0.84c-5.29,2.43-10.67,4.77-16.2,6.59
		c-3.31,1.09-6.67,1.99-10.11,2.62c-4.2,0.68-8.43,1.35-12.68,1.44c-1.36,0-2.5-1.14-2.5-2.5s1.14-2.5,2.5-2.5
		c14.17-0.39,27.49-5.46,39.98-11.67c24.73-12.97,41.5-32.29,72.08-28.71c18.1,1,34.75,8.88,52.38,12.28
		c10.64,2.23,21.75,3.16,32.05-0.72c13.22-4.53,24.91-12.31,35.86-20.84c3.36-2.43,6.58-5.02,9.69-7.75
		c1.53-1.34,3.03-2.71,4.51-4.11c7.11-6.74,13.6-14.14,19.7-21.8c6.62-8.65,12.28-17.99,18.91-26.63c0.38-0.5,0.76-1,1.15-1.49
		c0.68-0.86,1.38-1.72,2.09-2.57c3.22-3.88,6.67-7.61,10.32-11.13c4.01-3.87,8.27-7.49,12.76-10.78
		c9.38-6.86,19.75-12.28,30.95-15.51c7.63-2.23,28.86-6.3,38.83-3.84c1.59,0.39,2.9,0.95,3.82,1.71c1.16,0.96,1.94,2.02,2.42,3.15
		c2.24,5.23-2.02,11.85-6.22,15.45c-12.21,11.5-27.12,19.59-39.84,30.45c-7.41,6.38-13.85,14.11-19.32,22.11
		c-6.05,8.9-11.2,18.34-16.18,27.87c-0.85,1.62-1.7,3.25-2.54,4.88c-1.36,2.62-2.72,5.25-4.1,7.87
		c-6.48,11.93-12.37,24.78-22.37,34.23c-4.64,4.12-10.2,7.05-15.82,9.59c-11.2,5.13-23.49,7.35-35.65,8.76
		c-4.88,0.57-9.78,0.95-14.68,0.95C310.29,382.08,307.21,381.94,304.13,381.6z M194.43,351.92c13.16,0,26.29,1.94,38.87,6.23
		c11.55,3.74,22.78,8.45,34.52,11.63c14.91,3.92,30.23,6.93,45.68,7.33c9.9-0.39,20.15-1.28,30.04-3.44
		c0.52-0.11,1.05-0.23,1.57-0.35c0.16-0.04,0.32-0.07,0.48-0.11c0.59-0.14,1.18-0.29,1.77-0.44c7.03-1.8,13.82-4.32,20.11-7.84
		c0.6-0.34,1.19-0.68,1.78-1.03c0.29-0.18,0.59-0.36,0.88-0.54c0.58-0.36,1.16-0.73,1.73-1.11c0,0,0,0,0,0
		c0.57-0.38,1.14-0.77,1.7-1.17c0,0,0,0,0,0c0.56-0.4,1.12-0.81,1.67-1.23c0.28-0.21,0.55-0.43,0.83-0.64
		c0.27-0.26,0.54-0.52,0.81-0.79c0.53-0.53,1.05-1.07,1.56-1.62c0.51-0.55,1.01-1.11,1.5-1.69c1.22-1.43,2.37-2.91,3.46-4.43
		c0.66-0.91,1.3-1.85,1.91-2.79c0.41-0.62,0.82-1.26,1.22-1.9c0.2-0.32,0.4-0.64,0.6-0.96c0.79-1.29,1.55-2.59,2.3-3.9
		c2.05-3.61,3.98-7.3,5.93-10.92c0.18-0.33,0.36-0.66,0.54-0.98c1.38-2.59,2.73-5.18,4.09-7.78c0.19-0.36,0.38-0.73,0.57-1.1
		c0.71-1.37,1.42-2.73,2.13-4.1c0.12-0.24,0.25-0.48,0.38-0.72c0.1-0.19,0.2-0.39,0.3-0.58c1.36-2.6,2.72-5.19,4.11-7.77
		c0.23-0.43,0.46-0.86,0.7-1.29c1.63-3,3.29-5.99,5.02-8.94c0.25-0.42,0.49-0.84,0.74-1.26c0.75-1.26,1.5-2.52,2.27-3.76
		c0.25-0.41,0.52-0.83,0.77-1.24c0.52-0.83,1.05-1.65,1.58-2.47c1.03-1.59,2.09-3.17,3.17-4.72c1.53-2.18,3.11-4.31,4.76-6.39
		c0.95-1.19,1.91-2.36,2.89-3.52c0.74-0.86,1.49-1.72,2.25-2.56c0.77-0.84,1.54-1.67,2.33-2.49c0.53-0.55,1.06-1.09,1.6-1.62
		c2.15-2.14,4.39-4.19,6.73-6.13c11.6-9.53,24.67-17.14,36.01-27.02c0.16-0.13,0.32-0.27,0.5-0.42c0.17-0.15,0.35-0.31,0.54-0.48h0
		c0.45-0.41,0.93-0.86,1.43-1.36c0.25-0.25,0.5-0.5,0.75-0.77c0.09-0.09,0.17-0.18,0.25-0.27c0.5-0.54,0.99-1.1,1.45-1.68
		c0.46-0.58,0.89-1.18,1.25-1.77c0.31-0.5,0.58-0.99,0.79-1.48c0.85-1.95,0.82-3.78-1.04-4.97c0,0,0,0,0,0
		c-0.26-0.17-0.56-0.32-0.9-0.47h0c-0.07-0.03-0.15-0.06-0.23-0.09c-0.05-0.02-0.11-0.04-0.18-0.06c-0.06-0.02-0.12-0.04-0.18-0.06
		c-0.01,0-0.03-0.01-0.04-0.02c-0.05-0.02-0.09-0.03-0.14-0.04c-0.06-0.02-0.13-0.04-0.2-0.06c-9.29-1.24-19.07,0.65-28.17,2.07
		c-0.09,0.02-0.18,0.04-0.28,0.05c-0.37,0.07-0.74,0.15-1.11,0.23c0,0-0.01,0-0.02,0c-0.33,0.07-0.66,0.14-0.99,0.21
		c-0.01,0-0.02,0-0.02,0c-0.05,0.01-0.11,0.02-0.16,0.04c-0.06,0.01-0.12,0.02-0.18,0.04c-0.09,0.02-0.18,0.04-0.27,0.06
		c-0.03,0.01-0.06,0.01-0.09,0.02s-0.05,0.02-0.08,0.02c-0.09,0.02-0.17,0.04-0.25,0.05c-0.05,0.02-0.11,0.03-0.16,0.04
		c-0.06,0.02-0.12,0.03-0.18,0.04c-0.27,0.07-0.54,0.13-0.8,0.2c-0.15,0.04-0.3,0.07-0.45,0.12c-0.24,0.06-0.48,0.12-0.73,0.19
		c-0.03,0.01-0.05,0.02-0.08,0.02c-0.37,0.1-0.73,0.2-1.1,0.3c-0.13,0.04-0.26,0.07-0.39,0.11c-0.24,0.07-0.48,0.14-0.72,0.21
		c-0.04,0.01-0.09,0.02-0.13,0.04c-0.24,0.07-0.48,0.14-0.71,0.22c-0.21,0.06-0.41,0.12-0.62,0.19c0,0,0,0-0.01,0v0
		c-0.22,0.07-0.43,0.14-0.65,0.21c-0.59,0.19-1.19,0.39-1.78,0.61c-0.18,0.06-0.37,0.12-0.55,0.2c-0.29,0.1-0.58,0.21-0.87,0.32
		c-0.11,0.04-0.21,0.08-0.31,0.12c-0.17,0.06-0.33,0.12-0.5,0.19c-0.14,0.05-0.29,0.11-0.43,0.17c-0.21,0.08-0.43,0.17-0.65,0.25
		c-0.2,0.08-0.4,0.16-0.61,0.24c-0.03,0.01-0.07,0.03-0.1,0.04c-0.05,0.02-0.1,0.04-0.15,0.06c-0.42,0.17-0.84,0.34-1.25,0.52
		c-0.33,0.14-0.66,0.29-0.99,0.43c-0.47,0.21-0.93,0.42-1.39,0.63c-0.5,0.23-0.99,0.46-1.48,0.7c-0.19,0.09-0.39,0.19-0.58,0.28
		c-0.17,0.08-0.35,0.17-0.52,0.26c-0.5,0.25-0.99,0.5-1.48,0.75c-0.24,0.12-0.48,0.25-0.72,0.38c-0.12,0.06-0.23,0.12-0.35,0.18
		c-0.01,0.01-0.02,0.02-0.04,0.02c-0.07,0.04-0.14,0.07-0.21,0.11c-0.1,0.05-0.2,0.11-0.3,0.16c-0.11,0.06-0.22,0.12-0.33,0.18
		c-0.09,0.04-0.17,0.09-0.25,0.14c-0.05,0.02-0.1,0.05-0.14,0.08c-0.81,0.45-1.62,0.91-2.43,1.39c-0.39,0.23-0.78,0.46-1.16,0.7
		c-0.04,0.02-0.07,0.05-0.11,0.07c-0.37,0.23-0.74,0.46-1.11,0.69c-0.38,0.23-0.75,0.47-1.11,0.71c-0.16,0.11-0.33,0.21-0.49,0.32
		c-0.05,0.03-0.11,0.07-0.16,0.11c-0.21,0.13-0.41,0.27-0.61,0.41c-0.38,0.25-0.76,0.5-1.13,0.77c-0.38,0.26-0.77,0.53-1.15,0.8
		c-0.11,0.08-0.22,0.15-0.32,0.23c-0.21,0.15-0.43,0.3-0.64,0.46c-0.09,0.07-0.18,0.13-0.26,0.19c-0.35,0.25-0.7,0.51-1.05,0.77
		c-0.45,0.33-0.89,0.66-1.33,1c-0.27,0.2-0.53,0.41-0.79,0.62c-0.04,0.02-0.07,0.05-0.11,0.08h0c-0.08,0.07-0.16,0.12-0.23,0.19
		c-0.38,0.29-0.75,0.59-1.12,0.89c-0.2,0.16-0.4,0.32-0.6,0.49c-0.21,0.17-0.43,0.35-0.64,0.53h0c-0.14,0.12-0.29,0.24-0.43,0.36
		c-0.39,0.32-0.77,0.65-1.16,0.98c-0.22,0.19-0.45,0.39-0.67,0.58c-1.01,0.88-2.01,1.79-2.99,2.7c-0.07,0.07-0.15,0.14-0.23,0.21
		c-0.22,0.21-0.45,0.42-0.67,0.63c-0.04,0.04-0.09,0.08-0.13,0.12c-0.25,0.24-0.5,0.48-0.75,0.73c-0.15,0.14-0.3,0.29-0.44,0.43
		c-0.07,0.07-0.15,0.14-0.22,0.21c-0.07,0.07-0.14,0.14-0.21,0.21c-0.29,0.29-0.58,0.58-0.87,0.87c-0.14,0.15-0.29,0.29-0.44,0.44
		c-0.07,0.07-0.13,0.14-0.2,0.2c-0.05,0.05-0.1,0.1-0.15,0.15c-0.02,0.02-0.05,0.05-0.08,0.08c0,0,0,0,0,0
		c-0.13,0.14-0.27,0.27-0.4,0.41c-0.12,0.12-0.23,0.24-0.36,0.37c-0.02,0.02-0.03,0.04-0.05,0.05c-0.02,0.02-0.04,0.03-0.05,0.05
		c-0.01,0.01-0.02,0.02-0.04,0.04c-0.22,0.23-0.43,0.46-0.64,0.69c-1.35,1.44-2.66,2.9-3.95,4.39c-0.63,0.74-1.26,1.48-1.87,2.23
		c-0.26,0.31-0.52,0.63-0.77,0.95v0c-0.25,0.32-0.51,0.64-0.76,0.95c-0.04,0.05-0.08,0.11-0.12,0.16c-0.21,0.27-0.42,0.54-0.62,0.8
		c-0.5,0.64-0.99,1.29-1.48,1.93c-1.95,2.58-3.81,5.22-5.65,7.88c-0.92,1.33-1.83,2.66-2.74,4c-0.91,1.33-1.82,2.67-2.74,4
		c-0.41,0.59-0.82,1.18-1.23,1.77c-0.82,1.18-1.65,2.35-2.49,3.51c-1.68,2.33-3.4,4.62-5.21,6.86c-0.61,0.75-1.23,1.49-1.86,2.23
		c-0.89,1.07-1.8,2.14-2.72,3.2c-1.95,2.25-3.95,4.47-5.98,6.64c-0.31,0.33-0.62,0.66-0.94,0.99c-0.33,0.35-0.66,0.7-1,1.05
		c-0.5,0.52-1.01,1.04-1.52,1.55c-0.86,0.88-1.73,1.74-2.62,2.6c-1.09,1.06-2.19,2.1-3.3,3.12c-0.48,0.44-0.96,0.88-1.44,1.31
		c-0.02,0.02-0.04,0.04-0.05,0.05c-0.5,0.45-1,0.89-1.51,1.34c-1.01,0.88-2.04,1.75-3.07,2.61c-0.52,0.43-1.04,0.85-1.57,1.27
		c-0.52,0.42-1.05,0.84-1.59,1.25c-0.48,0.38-0.96,0.75-1.45,1.11c-0.11,0.08-0.21,0.16-0.32,0.24c-0.48,0.37-0.97,0.73-1.46,1.09
		c-14.21,10.95-29.96,21.46-48,24.33c-15.98,1.66-31.75-3.19-46.91-7.66c-12.92-4.36-26.4-7.01-40.06-6.43
		c-18.23,1.13-32.84,13.04-47.77,22.32c-0.23,0.15-0.47,0.29-0.7,0.44c1.61-0.45,3.23-0.87,4.86-1.26c0.81-0.2,1.62-0.39,2.44-0.57
		c0.82-0.18,1.63-0.36,2.45-0.54h0c0.82-0.17,1.64-0.34,2.46-0.5c2.88-0.55,5.77-1.03,8.68-1.42c0.83-0.11,1.66-0.21,2.49-0.31
		c0.83-0.09,1.66-0.18,2.5-0.27c0.83-0.08,1.66-0.16,2.5-0.23c0,0,0,0,0,0c1.66-0.13,3.33-0.24,5-0.32
		c0.42-0.02,0.84-0.04,1.26-0.05c0.83-0.03,1.66-0.05,2.5-0.07h0C192.76,351.93,193.6,351.92,194.43,351.92L194.43,351.92z"/>
	<path class="st1" d="M449.07,245.75c-0.34-0.08-0.65-0.23-0.93-0.44c-1.11-0.86-1.24-2.39-0.45-3.5c2.12-3.1,4.11-5.62,6.19-7.72
		c0.11-0.11,0.22-0.22,0.33-0.33c0.22-0.21,0.44-0.43,0.66-0.64c0.33-0.31,0.67-0.61,1.01-0.9c0.23-0.19,0.46-0.38,0.68-0.57
		c0.35-0.28,0.7-0.55,1.05-0.81c0.23-0.18,0.47-0.34,0.71-0.51c0.36-0.25,0.73-0.49,1.1-0.73c0.5-0.31,1.01-0.61,1.53-0.9
		c0.26-0.14,0.52-0.29,0.79-0.42c0.27-0.14,0.54-0.27,0.81-0.41s0.55-0.26,0.84-0.39c0.85-0.38,1.73-0.74,2.66-1.09
		c0.31-0.11,0.62-0.23,0.94-0.34c0.32-0.11,0.64-0.22,0.97-0.33c1.48-0.48,3.07-0.93,4.79-1.37c0.94-0.29,1.87-0.57,2.79-0.85
		c0.46-0.14,0.92-0.28,1.37-0.43c0.68-0.21,1.36-0.43,2.04-0.65c0.68-0.22,1.35-0.45,2.02-0.68c0.45-0.16,0.89-0.32,1.34-0.48
		c0.45-0.16,0.89-0.34,1.34-0.51c0.19-0.07,0.37-0.14,0.55-0.22c0,0,0,0,0,0c0.4-0.18,0.79-0.38,1.18-0.54s0.81-0.28,1.25-0.3
		c0.39,0,0.75,0.09,1.06,0.25c1.05,0.52,1.66,1.76,1.34,2.96c-0.24,0.87-0.95,1.51-1.78,1.73c-0.67,0.3-1.34,0.59-2.02,0.86
		c0,0,0,0-0.01,0v0c-0.31,0.12-0.62,0.24-0.93,0.36c-0.33,0.12-0.67,0.25-1,0.36c-1.63,0.59-3.33,1.14-5.05,1.68
		c-1.03,0.32-2.07,0.64-3.11,0.95c-0.69,0.21-1.38,0.41-2.06,0.62c-0.34,0.11-0.68,0.21-1.02,0.31c-0.68,0.21-1.35,0.41-2.02,0.62
		c-1,0.32-1.97,0.63-2.92,0.95c-4.34,1.4-7.97,4.2-10.95,7.61c-1.59,1.89-3.09,3.88-4.52,5.89c-0.17,0.24-0.38,0.43-0.62,0.59
		c-0.24,0.15-0.5,0.25-0.78,0.32c-0.18,0.04-0.37,0.06-0.56,0.06C449.48,245.82,449.27,245.8,449.07,245.75z"/>
	<path class="st1" d="M449.38,228.35c0-1.36,1.14-2.5,2.5-2.5s2.5,1.14,2.5,2.5s-1.14,2.5-2.5,2.5S449.38,229.71,449.38,228.35z"/>
	<path class="st4" d="M267.82,369.78c-11.74-3.18-22.97-7.89-34.52-11.63c-12.58-4.29-25.7-6.23-38.87-6.23h0
		c-0.83,0-1.67,0.01-2.5,0.02h0c-0.84,0.02-1.67,0.04-2.5,0.07c-0.42,0.02-0.84,0.04-1.26,0.05c-1.67,0.08-3.34,0.18-5,0.32
		c0,0,0,0,0,0c-0.83,0.07-1.66,0.14-2.5,0.23c-0.84,0.09-1.67,0.18-2.5,0.27c-0.83,0.09-1.66,0.2-2.49,0.31
		c-2.91,0.39-5.8,0.86-8.68,1.42c-0.82,0.16-1.64,0.32-2.46,0.5h0c-0.82,0.17-1.64,0.35-2.45,0.54s-1.63,0.38-2.44,0.57
		c-1.62,0.39-3.25,0.82-4.86,1.26c0.23-0.15,0.47-0.29,0.7-0.44c14.93-9.29,29.54-21.2,47.77-22.32
		c13.66-0.58,27.14,2.07,40.06,6.43c15.16,4.46,30.93,9.31,46.91,7.66c18.04-2.87,33.79-13.38,48-24.33
		c0.49-0.36,0.98-0.72,1.46-1.09c0.11-0.08,0.21-0.16,0.32-0.24c0.48-0.36,0.96-0.73,1.45-1.11c0.53-0.41,1.06-0.83,1.59-1.25
		c0.52-0.42,1.05-0.84,1.57-1.27c1.04-0.86,2.06-1.73,3.07-2.61c0.5-0.44,1.01-0.89,1.51-1.34c0.02-0.01,0.04-0.03,0.05-0.05
		c0.48-0.44,0.96-0.87,1.44-1.31c1.12-1.02,2.22-2.07,3.3-3.12c0.36-0.35,0.72-0.71,1.08-1.06c0.52-0.51,1.03-1.02,1.54-1.54
		s1.02-1.03,1.52-1.55c0.34-0.35,0.67-0.7,1-1.05c0.32-0.33,0.62-0.66,0.94-0.99c2.04-2.17,4.03-4.39,5.98-6.64
		c0.92-1.06,1.83-2.12,2.72-3.2c0.62-0.74,1.24-1.48,1.86-2.23c1.8-2.23,3.53-4.53,5.21-6.86c0.84-1.16,1.67-2.34,2.49-3.51
		c0.41-0.59,0.82-1.18,1.23-1.77c0.92-1.33,1.83-2.66,2.74-4c0.91-1.33,1.82-2.67,2.74-4c1.84-2.66,3.7-5.3,5.64-7.88
		c0.48-0.65,0.98-1.29,1.48-1.93c0.21-0.27,0.42-0.54,0.62-0.8c0.04-0.05,0.08-0.11,0.12-0.16c0.25-0.32,0.51-0.64,0.76-0.95v0
		c0.26-0.32,0.52-0.63,0.77-0.95c0.61-0.75,1.23-1.49,1.87-2.23c1.28-1.49,2.59-2.96,3.95-4.39c0.2-0.22,0.4-0.44,0.61-0.65
		c0.01-0.01,0.02-0.02,0.04-0.04s0.02-0.02,0.04-0.04c0.15-0.16,0.3-0.31,0.45-0.47c0.13-0.14,0.27-0.28,0.4-0.41
		c0.14-0.14,0.29-0.29,0.43-0.44c0.14-0.15,0.29-0.3,0.43-0.44h0c0.29-0.29,0.58-0.58,0.87-0.87c0.29-0.29,0.58-0.57,0.88-0.86
		c0.13-0.13,0.26-0.26,0.39-0.39c0.12-0.12,0.24-0.23,0.36-0.34c0.04-0.05,0.09-0.09,0.13-0.12c0.22-0.21,0.45-0.42,0.67-0.63
		c0.08-0.07,0.15-0.14,0.23-0.21c0.98-0.91,1.98-1.82,2.99-2.7c0.15-0.14,0.3-0.27,0.46-0.4c0.03-0.03,0.06-0.06,0.1-0.09
		s0.07-0.06,0.11-0.09c0.38-0.33,0.77-0.66,1.16-0.98c0.14-0.12,0.29-0.24,0.43-0.36c0.21-0.18,0.43-0.36,0.64-0.53
		c0.2-0.16,0.4-0.32,0.6-0.49c0.37-0.3,0.74-0.6,1.12-0.89c0.08-0.07,0.16-0.12,0.24-0.19c0.04-0.03,0.07-0.06,0.11-0.08
		c0.26-0.21,0.53-0.41,0.79-0.62c0.44-0.34,0.88-0.67,1.33-1c0.35-0.26,0.7-0.52,1.05-0.77c0.09-0.06,0.17-0.12,0.26-0.19
		c0.21-0.15,0.43-0.3,0.64-0.46c0.11-0.08,0.21-0.15,0.32-0.23c0.38-0.27,0.77-0.54,1.15-0.8c0.38-0.26,0.75-0.52,1.13-0.77
		c0.2-0.14,0.41-0.27,0.61-0.41c0.05-0.04,0.11-0.07,0.16-0.11c0.16-0.11,0.33-0.21,0.49-0.32c0.37-0.24,0.74-0.48,1.11-0.71
		c0.37-0.23,0.74-0.46,1.11-0.69c0.04-0.02,0.07-0.05,0.11-0.07c0.39-0.23,0.77-0.46,1.16-0.7c0.8-0.48,1.61-0.94,2.43-1.39
		c0.05-0.03,0.1-0.05,0.14-0.08c0.08-0.05,0.16-0.09,0.25-0.14c0.11-0.06,0.22-0.12,0.33-0.18c0.1-0.05,0.2-0.11,0.3-0.16
		c0.08-0.05,0.16-0.09,0.24-0.13c0.11-0.06,0.23-0.12,0.35-0.18c0.24-0.13,0.48-0.25,0.72-0.38c0.49-0.25,0.98-0.5,1.48-0.75
		c0.36-0.18,0.73-0.36,1.1-0.54c0.49-0.24,0.98-0.47,1.48-0.7c0.39-0.18,0.79-0.36,1.19-0.54c0.07-0.03,0.14-0.06,0.21-0.09
		c0.33-0.14,0.66-0.29,0.99-0.43c0.42-0.18,0.84-0.35,1.25-0.52c0.05-0.02,0.1-0.04,0.15-0.06c0.04-0.02,0.07-0.03,0.1-0.04
		c0.2-0.08,0.41-0.16,0.61-0.24c0.21-0.09,0.43-0.17,0.65-0.25c0.16-0.06,0.31-0.12,0.46-0.18c0.16-0.06,0.31-0.12,0.47-0.18
		c0.1-0.04,0.21-0.08,0.31-0.12c0.29-0.11,0.58-0.21,0.87-0.32c0.18-0.07,0.37-0.13,0.55-0.2c0.59-0.21,1.18-0.41,1.78-0.61
		c0.22-0.07,0.43-0.14,0.65-0.21h0c0,0,0,0,0,0c0.21-0.07,0.41-0.13,0.62-0.19c0.24-0.07,0.48-0.15,0.71-0.22
		c0.04-0.02,0.09-0.03,0.13-0.04c0.24-0.07,0.48-0.14,0.72-0.21c0.13-0.04,0.26-0.07,0.39-0.11c0.37-0.11,0.73-0.21,1.1-0.3
		c0.27-0.07,0.54-0.14,0.81-0.21c0.15-0.04,0.3-0.08,0.45-0.12c0.27-0.07,0.53-0.13,0.8-0.2c0.06-0.02,0.12-0.03,0.18-0.04
		c0.05-0.01,0.11-0.02,0.16-0.04c0.11-0.02,0.22-0.05,0.34-0.08c0.03-0.01,0.06-0.01,0.09-0.02c0.09-0.02,0.18-0.04,0.27-0.06
		c0.06-0.02,0.12-0.03,0.18-0.04c0.05-0.02,0.11-0.03,0.16-0.04c0.01,0,0.02,0,0.02,0c0.33-0.08,0.66-0.15,0.99-0.21
		c0.01,0,0.01,0,0.02,0c0.37-0.08,0.74-0.16,1.11-0.23c0.09-0.02,0.18-0.04,0.28-0.05c9.1-1.42,18.88-3.31,28.17-2.07
		c0.07,0.02,0.13,0.04,0.2,0.06c0.05,0.01,0.1,0.03,0.14,0.04c0.02,0,0.03,0.01,0.04,0.02c0.06,0.02,0.12,0.04,0.18,0.06
		c0.06,0.02,0.12,0.04,0.18,0.06c0.08,0.03,0.15,0.06,0.23,0.09h0c0.34,0.14,0.64,0.3,0.9,0.47c-0.18,0.08-0.37,0.16-0.55,0.22
		c-0.45,0.18-0.89,0.35-1.34,0.51c-0.45,0.17-0.89,0.33-1.34,0.48c-0.67,0.23-1.34,0.46-2.02,0.68c-0.67,0.22-1.35,0.44-2.04,0.65
		c-0.45,0.14-0.91,0.28-1.37,0.43c-0.92,0.28-1.85,0.56-2.79,0.85c-1.71,0.43-3.3,0.88-4.79,1.37c-0.33,0.11-0.65,0.21-0.97,0.33
		c-0.32,0.11-0.63,0.22-0.94,0.34c-0.93,0.34-1.81,0.7-2.66,1.09c-0.28,0.13-0.56,0.26-0.84,0.39s-0.55,0.27-0.81,0.41
		c-0.27,0.14-0.54,0.28-0.79,0.42c-0.52,0.29-1.03,0.59-1.53,0.9c-0.37,0.23-0.74,0.48-1.1,0.73c-0.24,0.17-0.48,0.34-0.71,0.51
		c-0.36,0.26-0.7,0.53-1.05,0.81c-0.23,0.19-0.46,0.38-0.68,0.57c-0.34,0.29-0.68,0.59-1.01,0.9c-0.22,0.21-0.44,0.42-0.66,0.64
		c-0.11,0.11-0.22,0.22-0.33,0.33c-2.08,2.1-4.07,4.62-6.19,7.72c-0.79,1.11-0.66,2.65,0.45,3.5c0.28,0.21,0.59,0.36,0.93,0.44
		c0.38,0.09,0.79,0.1,1.17,0.01c0.28-0.06,0.54-0.16,0.78-0.32s0.45-0.34,0.62-0.59c1.43-2.01,2.93-4,4.52-5.89
		c2.98-3.41,6.61-6.21,10.95-7.61c0.95-0.32,1.93-0.64,2.92-0.95c0.67-0.21,1.34-0.41,2.02-0.62c0.34-0.11,0.68-0.21,1.02-0.31
		c0.68-0.21,1.37-0.41,2.06-0.62c1.04-0.31,2.07-0.63,3.11-0.95c1.72-0.54,3.42-1.09,5.05-1.68c0.34-0.12,0.67-0.24,1-0.36
		c0.31-0.12,0.62-0.24,0.93-0.36v0c-0.21,0.48-0.48,0.98-0.78,1.47c-0.37,0.59-0.79,1.19-1.25,1.77c-0.46,0.58-0.95,1.14-1.45,1.68
		c-0.08,0.09-0.16,0.18-0.25,0.27c-0.25,0.26-0.5,0.52-0.75,0.77c-0.5,0.49-0.98,0.95-1.43,1.36h0c-0.19,0.17-0.37,0.33-0.54,0.48
		c-0.18,0.15-0.34,0.29-0.5,0.42c-11.34,9.88-24.41,17.49-36.01,27.02c-2.34,1.94-4.58,3.99-6.73,6.13
		c-0.54,0.53-1.07,1.07-1.6,1.62c-0.79,0.82-1.57,1.65-2.33,2.49c-0.77,0.84-1.52,1.7-2.25,2.56c-0.98,1.16-1.95,2.33-2.89,3.52
		c-1.65,2.08-3.23,4.22-4.76,6.39c-1.09,1.55-2.15,3.13-3.18,4.72c-0.53,0.82-1.06,1.64-1.57,2.47c-0.27,0.41-0.52,0.83-0.77,1.24
		c-0.77,1.25-1.53,2.5-2.27,3.76c-0.25,0.42-0.5,0.84-0.74,1.26c-1.73,2.95-3.39,5.94-5.02,8.94c-0.24,0.43-0.47,0.86-0.7,1.29
		c-1.39,2.58-2.76,5.17-4.11,7.77c-0.11,0.19-0.2,0.39-0.3,0.58c-0.12,0.24-0.25,0.48-0.37,0.72c-0.71,1.37-1.43,2.73-2.14,4.1
		c-0.19,0.37-0.38,0.73-0.57,1.1c-1.36,2.6-2.71,5.2-4.09,7.78c-0.18,0.33-0.36,0.66-0.53,0.98c-1.95,3.62-3.88,7.31-5.93,10.92
		c-0.75,1.31-1.51,2.62-2.3,3.9c-0.2,0.32-0.4,0.64-0.6,0.96c-0.4,0.64-0.8,1.27-1.22,1.9c-0.62,0.94-1.26,1.88-1.91,2.79
		c-1.09,1.52-2.24,3-3.46,4.43c-0.49,0.57-0.98,1.13-1.5,1.69c-0.51,0.55-1.03,1.09-1.56,1.62c-0.27,0.27-0.54,0.53-0.81,0.79
		c-0.27,0.22-0.55,0.43-0.83,0.64c-0.55,0.42-1.11,0.83-1.67,1.23c0,0,0,0,0,0c-0.56,0.4-1.13,0.79-1.7,1.17c0,0,0,0,0,0
		c-0.57,0.38-1.15,0.75-1.73,1.11c-0.29,0.18-0.59,0.36-0.88,0.54c-0.59,0.35-1.18,0.7-1.78,1.03c-6.29,3.52-13.07,6.03-20.11,7.84
		c-0.59,0.15-1.18,0.3-1.77,0.44c-0.16,0.04-0.32,0.07-0.48,0.11c-0.52,0.12-1.04,0.24-1.57,0.35c-9.89,2.16-20.14,3.05-30.04,3.44
		C298.04,376.72,282.73,373.7,267.82,369.78z M449.38,228.35c0,1.36,1.14,2.5,2.5,2.5s2.5-1.14,2.5-2.5s-1.14-2.5-2.5-2.5
		S449.38,226.99,449.38,228.35z"/>
	<path class="st1" d="M122.67,369.51c-0.77-3.88,4.87-3.51,7.31-4.57c4.8-1.16,9.47-2.8,14.05-4.66c3.05-1.19,4.95,3.26,1.95,4.61
		c-0.43,0.17-0.86,0.34-1.28,0.51c-4.87,1.91-9.82,3.58-14.91,4.79c-1.25,0.23-2.93,0.99-4.38,1.09c-0.11,0.01-0.21,0.01-0.31,0.01
		C124.03,371.29,123.13,370.86,122.67,369.51z"/>
	<path class="st5" d="M122.2,192.39c0.01-0.19,0.03-0.37,0.05-0.56c0.02-0.18,0.04-0.37,0.06-0.55c0.02-0.15,0.04-0.3,0.06-0.45
		c0.03-0.22,0.07-0.45,0.11-0.67c0.03-0.18,0.06-0.37,0.1-0.55c0.11-0.57,0.24-1.13,0.39-1.69c0.04-0.12,0.07-0.25,0.11-0.38
		c0.12-0.43,0.25-0.86,0.4-1.28c0.04-0.14,0.09-0.27,0.14-0.41c0.04-0.12,0.09-0.24,0.13-0.36c0.06-0.17,0.13-0.34,0.2-0.51
		c0.24-0.59,0.5-1.18,0.78-1.75c0.07-0.14,0.14-0.29,0.21-0.43c0.1-0.2,0.2-0.39,0.31-0.59c0.09-0.16,0.18-0.33,0.27-0.5
		c0.34-0.61,0.7-1.2,1.09-1.79c0.09-0.14,0.18-0.28,0.28-0.42c0.68-0.99,1.42-1.94,2.23-2.86c5.89-5.67,13.74-8.67,21.15-11.81
		c0.59-0.25,1.19-0.5,1.78-0.74c0.79-0.32,1.57-0.64,2.36-0.95c0.57-0.23,1.14-0.45,1.71-0.66c0.64-0.25,1.28-0.49,1.92-0.73
		c4.02-1.5,8.09-2.88,12.19-4.14c0.57-0.18,1.14-0.35,1.71-0.52c1.8-0.54,3.61-1.05,5.41-1.55c0.35-0.1,0.7-0.19,1.05-0.29
		c0.02-0.01,0.04-0.01,0.06-0.02c1.2-0.32,2.41-0.64,3.61-0.95c-1.34,0.62-2.54,1.59-3.47,2.68c-0.02,0.03-0.05,0.06-0.07,0.09
		c-0.16,0.04-0.32,0.07-0.48,0.12c-4.27,1.15-8.37,2.93-12.38,4.77c-3.44,1.57-6.88,3.16-10.31,4.75c-1.78,0.76-3.55,1.52-5.33,2.29
		c-1.86,0.8-3.81,1.42-5.71,2.12c-1.83,0.68-3.7,1.27-5.54,1.9c-2.14,0.73-4.23,1.56-6.14,2.8c-1.4,0.92-2.63,2.01-3.79,3.21
		c-0.93,0.97-1.61,2.17-2.28,3.32c-1.09,1.86-1.33,4.02-0.89,6.04c-0.68,0.47-1.29,1.04-1.82,1.69c-0.85,1.04-1.36,2.18-1.7,3.43
		C122.15,193.14,122.17,192.77,122.2,192.39z"/>
	<path class="st5" d="M206.54,149.17c0.79-0.13,1.57-0.27,2.36-0.39c0.83-0.14,1.66-0.27,2.5-0.4c0.84-0.13,1.67-0.26,2.5-0.39
		c0.81-0.12,1.61-0.24,2.42-0.36c3.36-0.49,6.73-0.94,10.1-1.36c-0.42,0.18-0.83,0.39-1.22,0.64c-0.3,0.18-0.58,0.38-0.85,0.6
		c-0.14,0-0.29,0-0.44,0c-0.87,0-1.73,0.03-2.59,0.14c-1.76,0.22-3.48,0.55-5.22,0.9c-2.39,0.23-4.77,0.17-7.16,0.4
		c-0.84,0.08-1.69,0.16-2.53,0.25C206.45,149.19,206.49,149.18,206.54,149.17z"/>
	<path class="st5" d="M272.88,169.86c0.17-0.79,0.23-1.6,0.19-2.4c0.02-0.08,0.03-0.16,0.04-0.24c0.12,1.2,0.14,2.4,0.04,3.61
		C273.08,170.5,272.99,170.18,272.88,169.86z"/>
	<path class="st5" d="M270.53,158.91c0.03,0.04,0.06,0.08,0.09,0.12C270.59,158.99,270.56,158.95,270.53,158.91z"/>
	<path class="st5" d="M270.03,157.91C270.03,157.91,270.03,157.91,270.03,157.91c0,0,0,0,0-0.01c0.02,0.03,0.03,0.05,0.04,0.08
		C270.06,157.95,270.04,157.93,270.03,157.91z"/>
	<path class="st5" d="M269.57,157.24C269.58,157.24,269.58,157.24,269.57,157.24C269.58,157.24,269.58,157.24,269.57,157.24z"/>
	<path class="st5" d="M267.55,153.15c0,0,0.01,0.01,0.01,0.01c0.03,0.05,0.05,0.1,0.07,0.15
		C267.6,153.26,267.58,153.21,267.55,153.15z"/>
	<path class="st5" d="M149.89,276.32c-0.05,0.01-0.11,0.02-0.17,0.03C149.78,276.34,149.83,276.33,149.89,276.32z"/>
	<path class="st4" d="M154.99,216.98c-8.74-0.41-18.1-1.79-25.32-7.09c-10.69-8.93-9.21-23.42-0.56-33.22
		c5.89-5.67,13.74-8.67,21.15-11.81c29.33-12.32,61.14-17.34,92.64-20.39c1.12-1.33,2.95-0.65,4.4-0.35
		c1.88,0.39,3.73,0.87,5.58,1.4c16.65,4.16,27,22.63,15.42,37.22c-8.91,10.21-21.84,16.16-34.5,20.36
		c-24.09,8.34-49.32,13.93-74.88,13.93C157.61,217.02,156.3,217.01,154.99,216.98z M240.3,149.73c-7.52,0.72-15.53,1.66-22.78,2.74
		c-18.89,3.13-37.86,6.54-55.86,13.28c-9.46,3.72-19.38,7.01-27.61,13.14c-3.91,3.33-6.02,8.45-6.93,13.41
		c-0.59,4.69,1.42,9.4,4.62,12.77c6.58,5.66,15.96,6.52,24.31,6.93c24.79,0.35,49.36-4.61,72.75-12.54
		c8.14-2.52,16.13-5.56,23.42-10.03c5.95-3.83,11.89-7.64,14.81-14.2c3.9-9.89-2.82-20.27-12.22-23.78
		c-2.62-0.96-5.29-1.77-8.02-2.34C244.63,149.31,242.47,149.53,240.3,149.73z"/>
	<path class="st4" d="M141.94,205.37c-1.08-5.56-0.84-11.32-1.41-16.95c-0.1-2.95-0.88-6.02,0.14-8.88
		c0.48-1.27,1.83-2.03,3.16-1.58c1.25,0.41,2.07,1.89,1.58,3.16c-0.27,0.58-0.26,1.21-0.27,1.84c0.68,7.09,0.6,14.3,1.68,21.33
		c0.38,1.86-1.06,3-2.49,3C143.31,207.3,142.29,206.71,141.94,205.37z"/>
	<path class="st4" d="M144.59,206.39c-1.01-3.39,3.52-3.57,5.45-5.1c5.9-3.25,11.35-9.57,4.16-14.89c-3.65-2.71-8.8-3.3-13.03-4.16
		c-1.54,0.04-2.98-1.06-2.89-2.69c0.59-4.21,6.16-1.53,8.84-1.23c4.44,0.92,8.88,2.45,12.07,5.83c3.96,3.84,4.77,10.48,1.11,14.79
		c-2.53,3.48-6.14,5.93-9.93,7.86c-1.04,0.53-2.38,1.17-3.55,1.17C145.89,207.98,145.06,207.57,144.59,206.39z"/>
	<path class="st4" d="M164.09,202.76c-0.9-6.22-0.75-12.61-1.4-18.88c-0.18-2.54-0.29-5.09-0.31-7.64c-0.02-2.08-0.33-4.67,1.23-6.3
		c4.12-3.3,6.1,3.2,7.07,6.17c1.14,3.27,2.34,6.52,3.7,9.7c1.71,3.82,3.65,7.52,5.41,11.3c0.57,1.23,0.17,2.72-1.07,3.37
		c-1.17,0.61-2.8,0.16-3.37-1.07c-2.7-5.66-5.64-11.21-7.75-17.12c0.63,6.45,0.61,12.99,1.39,19.41c0.37,1.86-1.07,3.01-2.5,3.01
		C165.46,204.69,164.43,204.1,164.09,202.76z"/>
	<path class="st4" d="M165.04,192.52c-2.3-1.5-0.72-5.24,1.97-4.59c1.62-0.62,3.07-1.58,4.5-2.53c2.75-1.79,5.5,2.2,2.84,4.12
		c-2.12,1.19-4.79,3.49-7.38,3.49C166.31,193.01,165.67,192.87,165.04,192.52z"/>
	<path class="st4" d="M181.38,199.44c-1.2-5.36-2.36-10.72-3.66-16.05c-0.62-2.58-1.19-5.16-1.58-7.79
		c-0.24-1.59-0.47-3.51,1.04-4.55c1.07-0.76,2.58-0.47,3.5,0.41c1.66,1.73,2.06,4.3,3.05,6.43c1.78,3.94,3.81,7.78,6.43,11.22
		c-0.55-4.86-1.49-9.66-2.31-14.48c-0.55-3.09-1.27-6.14-1.95-9.21c-0.3-1.33,0.58-2.69,1.91-2.98c1.33-0.29,2.68,0.57,2.98,1.91
		c0.55,2.45,1.17,4.89,1.62,7.37c0.94,5.39,2,10.77,2.64,16.19c0.2,2.32,0.71,4.94-0.46,7.08c-3.66,4.9-8.18-2.65-10.29-5.5
		c0.49,2.18,0.96,4.37,1.45,6.55c0.54,1.96,1.29,4.64-1.37,5.32c-0.17,0.04-0.34,0.05-0.51,0.05
		C182.71,201.4,181.61,200.6,181.38,199.44z"/>
	<path class="st4" d="M199.13,195.51c-7.49-4.42-3.84-34.08,6.14-33.53c3.25,0.24,3.03,5.04-0.24,5
		c-4.15,1.65-8.05,25.82-1.26,24.61c3.12-1.09,4.6-4.57,6-7.34c1.5-2.91,5.86-0.8,4.5,2.18c-1.87,4.6-6.09,10.27-11.16,10.27
		C201.83,196.71,200.49,196.34,199.13,195.51z"/>
	<path class="st4" d="M212.56,194.22c-1.37-3.92-1.85-8.1-3.25-12c-0.43,0.27-0.85,0.54-1.25,0.84c-1.21,3.52-6.36,1.37-4.81-2.04
		c2.52-3.68,8.29-6.38,10.59-0.94c1.61,3.99,2.02,8.37,3.43,12.44c0.64,1.95-0.91,3.33-2.44,3.33
		C213.9,195.85,213,195.36,212.56,194.22z"/>
	<path class="st4" d="M218.53,189.09c-4.15-8.34-4.41-18.05-6.84-26.93c-0.59-3.02,3.67-4.26,4.79-1.39c0.77,2.21,1,4.57,1.5,6.85
		c1.32,6.14,2.14,12.93,4.66,18.63c1.28,1.95-0.38,3.92-2.14,3.92C219.81,190.17,219.09,189.86,218.53,189.09z"/>
	<path class="st4" d="M213.97,166.36c-1.36-0.26-2.21-1.58-1.98-2.93c0.54-2.57,3.3-3.71,5.47-4.66c2.5-0.98,4.91-2.17,7.42-3.15
		c1.27-0.48,2.74,0.24,3.2,1.5c0.73,2.09-1.15,3.25-2.89,3.75c-2.74,1.4-5.77,2.21-8.38,3.85c0,0,0,0,0,0
		c-0.34,1-1.35,1.67-2.39,1.67C214.27,166.41,214.12,166.39,213.97,166.36z"/>
	<path class="st4" d="M215.94,176.26c-0.98-1.37-0.2-3.47,1.44-3.85c3.42-1.18,6.68-2.82,10.2-3.7c3.21-0.65,4.26,4.07,1.07,4.89
		c-3.38,0.88-6.5,2.5-9.81,3.59c-0.28,0.09-0.56,0.14-0.84,0.14C217.2,177.32,216.42,176.96,215.94,176.26z"/>
	<path class="st4" d="M219.87,188.94c-0.29-1.29,0.57-2.73,1.91-2.98c2.71-0.49,5.43-0.92,8.11-1.52c1.99-0.65,4.39-1.91,5.51,0.72
		c0.99,3.6-4,3.96-6.41,4.6c-2.05,0.36-4.1,0.71-6.14,1.09c-0.16,0.03-0.32,0.05-0.49,0.05
		C221.22,190.89,220.13,190.14,219.87,188.94z"/>
	<path class="st4" d="M235.18,183.19c-0.62-5.86-1.38-11.71-2.44-17.51c-0.54-3.26-1.2-6.52-1.49-9.82
		c-0.12-1.36,0.93-2.59,2.28-2.7c3.36-0.11,2.68,3.98,3.2,6.23c1.31,7.54,2.65,15.09,3.32,22.72c0.35,1.87-1.1,3.01-2.52,3.01
		C236.51,185.12,235.49,184.53,235.18,183.19z"/>
	<path class="st2" d="M195.55,265.27c-3.3-0.88-4.52-4.52-6.41-6.95c-2.07-1.4-4.89-1.2-7.23-1.99c-5.83-1.48-11.7-2.94-17.65-3.83
		c-5.45-0.87-10.96-1.28-16.4-2.29c-3.27-0.43-6.54-1.32-9.84-1.06c-1.34,0.18-2.68,0.34-3.87,1c-2,1.24-3.53,3.36-6,3.65
		c-2.96,0.18-3.66-3.79-1.5-5.35c1.19-1.54,7.06,0.59,4.67-2.64c-1.34-1.57-3.09-3.03-3.3-5.21c-0.1-1.07-0.01-2.36,0.9-3.06
		c0.65-0.46,1.43-0.16,2.07,0.16c2.55,0.96,4.12,3.27,6.09,4.99c0,0,0,0,0.01,0c0.2-0.13,0.48-0.11,0.64,0.08
		c0.16,0.18,0.17,0.45,0.03,0.64c2,2.04,5.24,2.19,7.89,2.77c6.12,0.88,12.36,0.79,18.4,2.2c5.3,1.34,10.55,2.79,15.63,4.8
		c2.59,0.61,5.26,0.54,7.9,0.43c1.56,0.02,3.22,0.04,4.66-0.61c1.94-0.89,3.91-2.28,6.14-1.87c1.09,0.15,2.39,0.89,2.13,2.16
		c-0.23,2.25-1.97,3.85-3.92,4.7c-0.31,0.21-0.46,0.66-0.41,1c0.23,1.42,1.38,2.48,1.62,3.89c0.28,1.19-0.58,2.46-1.77,2.46
		C195.87,265.34,195.71,265.31,195.55,265.27z M145.58,248.84c5.27,0.88,10.55,1.66,15.86,2.2c6.92,0.97,13.74,2.5,20.5,4.26
		c2.62,0.91,5.84,0.57,8.02,2.42c1.36,1.71,2.16,3.91,3.83,5.37c0.61,0.6,1.37,1.18,2.23,1.23c0.11,0,0.26-0.04,0.34-0.06
		c0.35-0.16,0.48-0.6,0.48-0.91c-0.62-2.98-3.78-5.13,0.64-6.99c1.17-0.7,1.85-1.93,2.05-3.25c0.06-0.28-0.06-0.48-0.27-0.62
		c-1.95-0.97-3.72-0.07-5.54,0.84c-1.38,0.7-2.79,1.39-4.29,1.25c-3.54,0.02-7.07,0.4-10.51-0.59c-5.54-2.22-11.36-3.82-17.17-5.08
		c-7.46-1.37-15.29-0.74-22.52-3.29c-1.13-0.27-1.77-1.33-2.71-1.87c-0.25-0.06-0.42-0.28-0.41-0.53c-1.88-1.93-3.61-4.08-6.25-4.91
		c-1.19-0.1-0.93,2.31-0.68,3c0.64,2.02,2.74,3.06,3.53,4.98c1.04,2.42-2.16,2.58-3.77,2.48c-1.29-0.12-2.47,0.83-2.58,2.1
		c-0.11,0.65,0.21,1.39,0.75,1.71c2.66,1.05,4.88-2.82,7.2-3.63c1.57-0.61,3.2-0.83,4.83-0.83
		C141.3,248.12,143.47,248.49,145.58,248.84z"/>
	<path class="st2" d="M142.16,276.92c-4.7-0.95-0.33-5.44,1.48-7.15c-2.47,0.8-5.87-1.4-4.84-4.15c0.39-0.67,1.29-0.52,1.95-0.66
		c1.04-0.18,2.11-0.17,3.18-0.17c2.09,0.01,4.16,0.02,5.96-1.32c6.52-3.43,12.91-7.15,19.12-11.15c0.45,0.09,0.9,0.18,1.35,0.27
		c-3,1.94-6.02,3.84-9.04,5.7c-4.59,2.54-9.08,5.48-13.98,7.36c-1.13,0.17-2.28,0.16-3.43,0.15c-1.43-0.01-2.86-0.02-4.24,0.31
		c-0.31,1.1,0.62,2.18,1.57,2.58c0.99,0.4,2.05,0.11,3.06-0.05c0.53-0.12,0.94,0.28,0.78,0.81c-0.66,1.59-6.99,6.12-2.36,6.5
		c2.13-0.07,3.02-2.25,3.66-3.95c0.6-1.82,0.23-4.4,2.45-5.18c5.26-3.5,11.26-5.76,16.38-9.45c2.03-1.63,4.16-3.11,6.34-4.53
		c0.46,0.1,0.92,0.2,1.38,0.3c-3.19,2.1-6.3,4.32-9.35,6.62c-4.69,2.61-9.55,4.94-14.07,7.84c-0.62,0.31-1.32,0.63-1.48,1.33
		c-0.53,3.13-1.55,8.02-5.44,8.02C142.46,276.94,142.31,276.93,142.16,276.92z"/>
	<path class="st2" d="M173.03,251.89c6.08-3.84,12.43-7.3,17.91-12.01c1.98-1.79,4.27-1.28,6.59-0.77c1.79,0.39,3.59,0.78,5.28,0.12
		c0.4-0.2,0.82-0.36,1.09-0.71c0.27-0.42,0.29-0.91-0.02-1.29c-2.05-2.25-5.3-1.62-8-1.95c-2.14-1.14,0.83-4.05,0.36-5.83
		c-0.73-2.82-2.04-0.99-2.75,0.62c-1.2,2.67-1.07,6-3.19,8.17c-5.79,4.76-12,9.15-18.34,13.31c-0.4-0.13-0.8-0.25-1.2-0.37
		c6-3.93,11.83-8.12,17.45-12.55c0.23-0.85,1.49-0.84,1.88-1.64c1.73-2.89,1.43-6.62,3.67-9.26c0.86-1.22,2.52-0.87,3.08,0.45
		c0.7,1.2,0.41,2.63-0.08,3.84c-0.18,0.71-0.86,1.6-0.58,2.31c2.4,0.18,4.93-0.12,7.1,1.16c4.52,2.71-0.18,5.8-3.66,5.04
		c-2.25-0.18-4.62-1.55-6.82-0.59c-1.53,0.71-2.65,1.94-4.01,2.92c-3.29,2.58-6.86,4.77-10.45,6.91c-1.39,0.81-2.75,1.65-4.1,2.52
		C173.85,252.15,173.44,252.01,173.03,251.89z"/>
	<path class="st2" d="M147.88,249.22c0.37,0.06,0.74,0.12,1.11,0.18c0.6,3.69,1.42,7.34,2.36,10.95c0.31,1.02,0.6,2.03,0.91,3.05
		c-0.29,0.16-0.59,0.3-0.88,0.45C150.05,259.47,148.72,254.26,147.88,249.22z"/>
	<path class="st2" d="M153.54,271.09c0-0.13,0.06-0.25,0.15-0.33c-0.59-1.57-1.27-3.53-1.96-5.73c0.29-0.16,0.57-0.33,0.86-0.49
		c0.49,1.62,1.02,3.23,1.66,4.79c0.27,0.71,0.96,2.27-0.25,2.35C153.72,271.63,153.53,271.4,153.54,271.09z"/>
	<path class="st2" d="M176.32,269.37c-2.43-5.15-3.55-10.83-4.4-16.45c0.34,0.07,0.68,0.15,1.01,0.22c0,0,0.01,0,0.01,0
		c0.63,4.35,1.64,8.64,2.99,12.82c0.46,1.27,1.05,2.41,1.55,3.64c0.11,0.25,0.04,0.54-0.21,0.67c-0.09,0.04-0.17,0.06-0.24,0.06
		C176.61,270.33,176.46,269.7,176.32,269.37z"/>
	<path class="st2" d="M171.96,251.55c-0.09-0.03-0.17-0.05-0.25-0.08c-0.03-0.2-0.06-0.4-0.09-0.6c-0.77-4.96,0.68-10.19,4.87-13.22
		c3.89-3.73,18.49-9.45,13.48-16.15c-5.74-3.58-24.9,2.58-31.52,4.69c-7.24,1.87-10.77,5.82-10.51,13.46
		c0.12,2.64,0.38,5.28,0.76,7.9c-0.37-0.04-0.73-0.08-1.1-0.12c-0.86-5.93-0.94-11.48,0.57-14.98c1.46-3.61,4.95-5.7,8.55-6.72
		c4.12-1.52,8.38-2.62,12.61-3.78c5.55-1.48,11.29-2.67,17.05-2.45c2.67-0.07,5.18,1,5.57,3.93c0.6,5.44-5.36,8.22-9.04,11
		c-6.11,3.84-11.29,7.17-10.38,15.27c0.07,0.7,0.15,1.4,0.24,2.11C172.49,251.71,172.23,251.63,171.96,251.55z"/>
	<path class="st2" d="M211.96,252.97c-1.61-4.64-2.16-9.65-3.43-14.4c-1.04-5.64-3.48-11.12-3.5-16.9c0.25-3.26,5.09-3.02,4.99,0.27
		c-0.04,0.61,0,1.23,0.07,1.82c2.06,8.82,4.27,17.62,6.18,26.49c1.36,2.01-0.4,4.08-2.2,4.08
		C213.3,254.33,212.51,253.93,211.96,252.97z"/>
	<path class="st2" d="M212.15,240.09c-1.36-0.1-2.44-1.25-2.36-2.63c0.21-2.28,2.23-2.53,4.1-2.3c0.31,0.02,0.61-0.09,0.89-0.21
		c3.87-2.48,2.47-8.35-0.3-11.17c-1.32-1.48-3.18-1.22-4.55,0.04c-0.9,0.7-1.58,1.85-2.82,1.92c-2.12,0.27-3.61-2.56-2.11-4.12
		c7.84-9.11,17.57-0.46,17.13,9.33c-0.09,4.74-3.82,9.26-8.6,9.26C213.08,240.22,212.62,240.17,212.15,240.09z"/>
	<path class="st2" d="M226.22,240.49c-2.88-5-4.07-17.25-0.54-22.04c1.19-1.42,3.62-1.33,4.42,0.44c4.29,2.38,7.2,7.08,8.43,11.73
		c1.23,5.48-2.48,13.17-7.16,13.17C229.72,243.8,227.94,242.84,226.22,240.49z M231.3,238.73c0.01,0,0.02,0,0.04-0.01
		c0.02-0.01,0.04-0.01,0.06-0.02c2.06-1.58,2.52-4.73,2.23-7.18c-0.83-2.84-2.55-5.59-4.79-7.54
		C228.45,228.18,228.2,235.58,231.3,238.73z"/>
	<path class="st2" d="M239.46,238.87c-0.73-5.21-1.93-10.38-3.82-15.32c-0.71-1.98-1.54-3.98-2-6.04c-0.6-3.51,4.54-4.2,4.98-0.66
		c2.27,6.69,4.91,13.34,5.58,20.43c0.39,1.25-0.3,2.63-1.54,3.09c-0.27,0.1-0.55,0.14-0.82,0.14
		C240.82,240.52,239.83,239.89,239.46,238.87z"/>
	<path class="st2" d="M247.83,235.83c-1.97-0.94-4.95-3.13-3.04-5.48c0.86-1,2.53-1.2,3.52-0.27c0.73,0.61,1.51,1.5,2.55,1.35
		c2.94-0.65,2.04-4.37,0-5.6c-2.82-2.11-6.39-1.9-9.3-3.6c-5.12-3.74,0.05-10.62,4.04-13.04c1.84-1.12,5.28-1.23,5.55,1.52
		c0.11,1.32-0.92,2.63-2.29,2.7c-0.26,0.02-0.54,0.01-0.78,0.12c-1.64,1.07-3.04,2.72-3.66,4.59c0.63,0.34,1.91,0.6,2.4,0.74
		c15.23,3.09,12.52,17.51,3.96,17.51C249.87,236.37,248.88,236.2,247.83,235.83z"/>
	<path class="st2" d="M263.16,232.63c-8.59-1.67-11.07-16.85-7.12-23.38c-0.46-1.76,1.5-3.58,3.23-2.89
		c2.57,0.98,4.46,3.11,5.99,5.32c3.24,4.96,5.77,11.38,3.73,17.27c-0.73,2.07-2.91,3.74-5.15,3.74
		C263.61,232.68,263.38,232.66,263.16,232.63z M259.75,212.86c-1.11,4.37-0.53,12.64,4.06,14.81c2.82-3.68-1.25-11.7-3.96-14.81
		C259.82,212.86,259.79,212.86,259.75,212.86z"/>
	<path class="st2" d="M273.73,227.81c-0.76-0.35-1.14-1.07-1.44-1.81c-1.06-2.55-2.18-5.1-3.05-7.72c-1.32-4.38-3.2-8.8-3.5-13.38
		c0.2-2.09,2.73-3.68,4.47-2.16c2.98,2.46,3.79,6.66,6.41,9.48c-1.7-4.81-3.14-9.71-4.43-14.64c-0.34-1.32,0.61-2.7,1.91-2.98
		c1.37-0.3,2.64,0.59,2.98,1.91c0.8,3.09,1.71,6.14,2.63,9.21c1.08,3.44,2.32,6.84,3.64,10.2c0.41,1.11,1.02,2.18,0.9,3.4
		c-0.08,1.73-2.02,2.92-3.59,2.12c-2.43-1.24-4.74-2.73-6.66-4.68c0.95,2.69,2.04,5.33,3.18,7.95c0.7,1.64-0.8,3.36-2.4,3.36
		C274.43,228.08,274.07,227.99,273.73,227.81z"/>
	<path class="st4" d="M240.48,177.89c-6.39-1.36-6.7-5.57-4-10.7c1.42-3.31,4.43-6.72,2.9-10.5c0,0,0,0,0,0
		c-0.97,0.19-1.83,0.88-2.34,1.72c-1.87,2.7-5.91,0.04-4.18-2.75c0.72-1.12,1.63-2.01,2.75-2.74c6.52-3.99,10.19,2.27,8.99,8.35
		c-0.91,3.96-3.75,7.2-4.76,11.13c2.29,1.1,4.97,1.18,7.46,0.87c2.23-0.13,4.37-1.79,6.54-1.07c1.93,0.85,1.81,3.99-0.24,4.6
		c-2.85,0.92-5.84,1.63-8.83,1.63C243.33,178.43,241.9,178.27,240.48,177.89z"/>
	<path class="st2" d="M171.83,234.76c-2.85-0.93-5.01-2.98-7.15-4.97c-1.58-0.98-2.69-3.2-1.04-4.66c2.8-2.27,5.21,2.24,7.38,3.61
		c1.64,1.59,5.14,1.18,5.46,3.92c0.04,1.83-1.18,2.66-2.59,2.66C173.21,235.33,172.48,235.13,171.83,234.76z"/>
	<path class="st2" d="M167.32,239.13c-1.36-0.45-2.07-2.01-1.52-3.33c1.02-4.53,0.86-8.58,1.85-12.92c1.09-3.09,5.68-1.57,4.75,1.58
		c-0.59,3.16-0.69,6.39-1.22,9.55c-0.23,2.01-0.6,5.25-2.96,5.25C167.94,239.26,167.65,239.22,167.32,239.13z"/>
	<path class="st2" d="M184.33,227.5c-3.15-1.64-5.69-4.27-8.77-6.04c-3.15-1.42-1.18-6,1.97-4.61c3.27,1.79,5.6,4.04,8.53,5.93
		c0.7,0.07,1.37,0.44,1.8,1.05c1.28,1.88-0.37,3.99-2.28,3.99C185.17,227.82,184.74,227.72,184.33,227.5z"/>
	<path class="st2" d="M179.6,231.51c-3.67-0.96-1.14-5.68-1.21-8.29c0.77-2.8-0.95-9.39,3.57-9.04c1.54,0.29,2.42,1.97,1.88,3.43
		c-0.14,2.04-0.22,4.08-0.49,6.1c-0.63,2.47,0.18,7.83-3.32,7.83C179.9,231.53,179.75,231.52,179.6,231.51z"/>
	<path class="st6" d="M119.33,277.47c-2.36-3.33-1.26-7.83-1.38-11.67c0.54-13.28,1.16-26.55,1.18-39.83
		c0.11-10.72,0.02-21.46,0.76-32.15c0.75-8.63,2.12-18.62,9.98-23.76c6.5-4.02,14.05-5.93,21.26-8.27
		c20.82-6.13,41.99-10.94,63.05-16.15c8.01-1.85,16.05-3.52,24.06-5.37c2.58-0.64,5.2-1.16,7.76-1.86c0.72-0.22,1.3-0.73,1.6-1.38
		c3.38-0.35,7.56-1.19,9.8,2.07c4.19,4.8,8.16,9.82,11.76,15.08c7.11,10.6,11.9,22.59,15.11,34.91c2.64,10.99,9.86,42.57,5.14,51.82
		c-3.54,6.9-23.63,12.95-31.26,15.96c-14.53,4.84-29.34,9.09-44.32,12.63c-0.81,0.19-1.62,0.38-2.44,0.57
		c-0.7,0.16-1.39,0.32-2.08,0.48c-0.12,0.03-0.24,0.05-0.36,0.08c-1.36,0.31-2.73,0.61-4.1,0.9c-0.82,0.18-1.64,0.35-2.46,0.52
		c-0.82,0.18-1.64,0.34-2.46,0.51c-21.12,4.32-42.54,7.15-64.01,8.16C130.47,280.49,123.71,281.28,119.33,277.47z M241.68,142.96
		c-2.68,0.28-5.29,0.76-7.88,1.38c-1.11,0.06-2.22,0.27-3.29,0.61c-1.37,0.43-2.78,0.75-4.09,1.33c-6.69,0.83-13.37,1.79-20.02,2.93
		c-2.04,0.21-4.08,0.44-6.11,0.7c-3.24,0.41-6.4,1.03-9.58,1.78c-1.55,0.36-3.11,0.85-4.62,1.32c-0.94,0.3-1.88,0.6-2.82,0.87
		c-0.41,0.12-0.81,0.27-1.2,0.45c-10.83,2.76-21.48,6.2-31.81,10.54C142.85,168,135,171,129.11,176.67
		c-4.3,4.87-6.83,10.91-6.97,16.84c-0.08,0.3-0.16,0.61-0.22,0.93c-0.32,1.51-0.15,3.09-0.04,4.63c0.04,1.83-0.01,3.64-0.11,5.47
		c-0.13,2.5-0.46,5.25,0.13,7.7c0.39,1.61,1.23,3.05,2.36,4.2c-0.24,0.76-0.48,1.51-0.72,2.27c-2.02,6.29-3.34,12.7-3.78,19.29
		c-0.27,4.05-0.37,8.15,0.46,12.15c0.79,3.82,2.57,7.21,5.43,9.88c1.39,1.3,2.99,2.25,4.69,2.99c-1.04,1.02-1.83,2.26-2.28,3.77
		c-0.8,2.67-0.29,5.71,1.32,7.99c2.21,3.13,5.85,4.57,9.53,4.57c1.58,0,3.17-0.27,4.65-0.78c1.77-0.62,3.47-1.41,5.24-2.04
		c0.14-0.04,0.29-0.07,0.44-0.1c0.31-0.04,0.62-0.07,0.94-0.1c0.49-0.01,0.99,0,1.48,0c0.57,0,1.13,0,1.7,0
		c1.98-0.04,3.92-0.32,5.83-0.85c1.71-0.47,3.41-1.05,5.07-1.67c1.27-0.48,2.48-1.11,3.76-1.55c1.22-0.42,2.43-0.83,3.65-1.23
		c1.02,0.7,2.19,1.2,3.44,1.49c4.51,1.05,9.23-0.07,13.73-0.77c3.34-0.49,6.7-0.96,9.99-1.7c0.83-0.19,1.66-0.38,2.48-0.59
		c2.71-0.43,5.37-1.14,7.95-2.08c3.09-1.14,6.05-2.6,9.16-3.7c2.29-0.81,4.05-2.57,5.02-4.7c0.89-0.24,1.75-0.58,2.55-1.02
		c0.98-0.55,1.83-1.32,2.66-2.08c0.66-0.23,1.33-0.47,2-0.71c1.46,0.14,2.94-0.02,4.3-0.54c1.71-0.66,3.15-1.61,4.4-2.79
		c1.89-0.75,3.77-1.49,5.68-2.2c2.09-0.78,4.17-1.64,6.29-2.34c1,1.45,2.42,2.6,4.16,3.26c2.91,1.1,6.36,0.59,8.78-1.38
		c1.46-1.19,2.76-2.39,3.73-4.03c0.08-0.13,0.15-0.26,0.22-0.39c2.19-0.51,4.11-1.97,5.36-3.84c2.91,0.23,5.62-1.25,7.37-3.48
		c0.02-0.01,0.03-0.02,0.05-0.02c2.45-1.18,4.88-2.57,6.35-4.95c1.42-2.29,1.61-4.96,1.27-7.57c-0.25-1.93-0.55-3.85-0.88-5.76
		c-0.76-4.55-1.56-9.08-2.95-13.49c-0.57-1.82-1.86-3.34-3.47-4.37c-0.09-3.06-1.72-5.89-4.27-7.48c-0.09-1-0.26-1.99-0.51-3
		c-0.85-3.5-4.05-6.17-7.58-6.61c-0.08-0.01-0.16-0.02-0.23-0.03c-0.1-0.34-0.21-0.68-0.36-1.01c0.91-0.89,1.63-1.96,2.11-3.19
		c0.15-0.14,0.3-0.3,0.43-0.45c1.67-1.82,2.61-4.44,2.51-6.91c-0.02-0.61-0.11-1.2-0.23-1.77c0.09-1.21,0.07-2.42-0.04-3.61
		c0.04-0.28,0.07-0.56,0.09-0.85c0.02-0.45,0.02-0.89-0.02-1.32c0-0.02,0-0.04-0.01-0.06c0-0.03,0-0.05-0.01-0.08
		c-0.14-1.52-0.64-2.99-1.52-4.28c-0.08-0.12-0.16-0.23-0.25-0.34c-0.05-0.07-0.11-0.15-0.17-0.23c-0.23-0.58-0.51-1.15-0.86-1.72
		c-0.16-0.27-0.36-0.53-0.55-0.79c-0.07-0.09-0.13-0.17-0.2-0.25c-0.02-0.02-0.04-0.05-0.05-0.07c-0.02-0.02-0.03-0.04-0.04-0.05
		c-0.07-0.1-0.15-0.2-0.24-0.29c0,0,0,0,0-0.01c-0.09-0.14-0.18-0.27-0.27-0.4c-0.11-0.57-0.27-1.15-0.51-1.73
		c-0.3-0.75-0.72-1.43-1.21-2.06c-0.23-0.41-0.48-0.8-0.77-1.2c-0.8-1.08-1.82-1.87-2.96-2.56c-0.39-0.23-0.79-0.42-1.2-0.57
		c-1.22-1.69-2.95-2.97-5.08-3.45c-0.93-0.21-1.8-0.26-2.65-0.21c-0.25-0.02-0.51-0.02-0.77-0.02c-0.21,0-0.41,0.02-0.62,0.03
		c-1.03-0.68-2.13-1.23-3.4-1.6c-1.24-0.36-2.5-0.48-3.76-0.48C244.62,142.64,243.14,142.81,241.68,142.96z"/>
	<path class="st5" d="M156.06,212c-8.35-0.41-17.73-1.27-24.31-6.93c-3.2-3.37-5.21-8.08-4.62-12.77
		c0.92-4.95,3.03-10.08,6.93-13.41c8.22-6.14,18.14-9.42,27.61-13.14c17.99-6.74,36.96-10.15,55.86-13.28
		c7.25-1.09,15.27-2.02,22.78-2.74c2.17-0.2,4.34-0.42,6.5-0.61c2.73,0.57,5.4,1.38,8.02,2.34c9.41,3.52,16.12,13.89,12.22,23.78
		c-2.92,6.55-8.86,10.36-14.81,14.2c-7.29,4.46-15.28,7.51-23.42,10.03c-22.61,7.67-46.33,12.56-70.27,12.56
		C157.71,212.02,156.89,212.01,156.06,212z M150.37,206.81c3.8-1.93,7.4-4.38,9.93-7.86c3.66-4.31,2.86-10.95-1.11-14.79
		c-3.19-3.38-7.62-4.91-12.07-5.83c-2.67-0.3-8.24-2.99-8.84,1.23c-0.07,1.27,0.79,2.21,1.89,2.55c-0.13,2.09,0.28,4.23,0.35,6.32
		c0.57,5.63,0.33,11.39,1.41,16.95c0.43,1.66,1.89,2.17,3.12,1.83C146.34,208.76,148.74,207.65,150.37,206.81z M163.61,169.94
		c-1.55,1.63-1.24,4.22-1.23,6.3c0.02,2.55,0.12,5.1,0.31,7.64c0.64,6.27,0.5,12.66,1.4,18.88c0.81,3.2,5.52,2.13,4.89-1.07
		c-0.35-2.93-0.54-5.89-0.7-8.86c1.07-0.28,2.14-0.86,3.16-1.48c1.28,2.7,2.62,5.36,3.9,8.05c0.57,1.23,2.2,1.68,3.37,1.07
		c1.25-0.64,1.65-2.13,1.07-3.37c-1.42-3.06-2.96-6.07-4.4-9.12c0.21-1.04-0.33-2.13-1.21-2.68c-1.27-3.03-2.4-6.11-3.49-9.21
		c-0.78-2.4-2.22-7.08-4.9-7.09C165.13,169.02,164.41,169.29,163.61,169.94z M177.19,171.05c-1.51,1.04-1.28,2.97-1.04,4.55
		c0.39,2.62,0.96,5.21,1.58,7.79c1.3,5.33,2.46,10.7,3.66,16.05c0.27,1.34,1.68,2.2,2.98,1.91c2.66-0.68,1.91-3.36,1.37-5.32
		c-0.49-2.18-0.95-4.37-1.45-6.55c2.11,2.85,6.63,10.4,10.29,5.5c1.18-2.14,0.67-4.77,0.46-7.08c-0.64-5.43-1.71-10.8-2.64-16.19
		c-0.45-2.48-1.07-4.92-1.62-7.37c-0.29-1.33-1.64-2.2-2.98-1.91c-1.33,0.29-2.2,1.65-1.91,2.98c0.68,3.07,1.4,6.12,1.95,9.21
		c0.82,4.82,1.76,9.62,2.31,14.48c-2.62-3.44-4.65-7.28-6.43-11.21c-0.99-2.13-1.39-4.69-3.05-6.43c-0.55-0.53-1.32-0.85-2.08-0.85
		C178.1,170.61,177.61,170.75,177.19,171.05z M199.13,195.52c4.96,3.02,9.52-0.17,12.52-4.35c0.26,1.03,0.55,2.05,0.91,3.05
		c1.18,3.07,5.72,1.41,4.7-1.7c-1.41-4.07-1.82-8.45-3.43-12.44c-2.31-5.44-8.07-2.74-10.59,0.94c-1.54,3.4,3.6,5.56,4.81,2.03
		c0.41-0.3,0.83-0.57,1.26-0.84c0.21,0.6,0.4,1.2,0.58,1.81c-0.05,0.07-0.09,0.15-0.13,0.23c-1.39,2.76-2.87,6.25-6,7.34
		c-6.78,1.2-2.88-22.96,1.27-24.61c3.27,0.05,3.49-4.75,0.24-4.99c-0.09-0.01-0.18-0.01-0.28-0.01
		C195.22,161.98,191.71,191.14,199.13,195.52z M222.85,190.85c2.05-0.37,4.09-0.73,6.14-1.09c2.42-0.65,7.4-1,6.41-4.6
		c-1.12-2.64-3.52-1.38-5.51-0.72c-2.46,0.55-4.94,0.95-7.42,1.4c-1.2-2.81-2-5.88-2.66-8.98c2.95-1.07,5.79-2.46,8.84-3.25
		c3.19-0.82,2.14-5.54-1.07-4.89c-3.02,0.75-5.85,2.07-8.75,3.17c-0.27-1.44-0.55-2.87-0.85-4.26c-0.23-1.07-0.41-2.15-0.61-3.23
		c2.47-1.42,5.27-2.21,7.81-3.51c1.74-0.5,3.62-1.66,2.89-3.75c-0.46-1.26-1.93-1.98-3.2-1.5c-2.5,0.98-4.91,2.18-7.42,3.15
		c-0.59,0.26-1.21,0.53-1.83,0.84c-1.64-1.21-4.42,0.07-3.93,2.55c0.11,0.4,0.21,0.8,0.32,1.21c-0.01,0.02-0.02,0.05-0.02,0.07
		c-0.12,0.74,0.08,1.47,0.51,2.03c1.75,7.94,2.39,16.31,6.04,23.62c0.57,0.79,1.31,1.1,2.03,1.08
		C221.15,190.74,222.01,191,222.85,190.85z M233.53,153.17c-1.35,0.11-2.4,1.34-2.28,2.7c0.29,3.3,0.95,6.55,1.49,9.82
		c1.06,5.8,1.81,11.65,2.44,17.51c0.75,3.19,5.49,2.15,4.88-1.07c-0.13-1.48-0.29-2.96-0.46-4.45c0.28,0.08,0.58,0.15,0.89,0.22
		c4.38,1.17,8.89,0.27,13.11-1.09c2.05-0.62,2.18-3.75,0.24-4.6c-2.17-0.73-4.31,0.93-6.54,1.06c-2.48,0.31-5.17,0.23-7.45-0.87
		c1-3.94,3.84-7.18,4.75-11.13c1.2-6.08-2.47-12.34-8.99-8.35c-0.25,0.16-0.48,0.33-0.71,0.51c-0.33-0.17-0.73-0.26-1.22-0.26
		C233.63,153.16,233.58,153.16,233.53,153.17z"/>
	<path class="st5" d="M145.15,183c3.2,0.64,6.5,1.5,9.05,3.4c7.18,5.31,1.74,11.63-4.16,14.89c-0.86,0.68-2.23,1.1-3.41,1.64
		C145.76,196.35,145.78,189.63,145.15,183z"/>
	<path class="st5" d="M236.74,159.4c-0.04-0.16-0.07-0.34-0.09-0.52c0.14-0.13,0.27-0.29,0.39-0.46c0.51-0.84,1.37-1.54,2.34-1.73
		c0,0,0,0,0,0c1.16,2.88-0.31,5.55-1.71,8.13C237.36,163.01,237.05,161.2,236.74,159.4z"/>
	<path class="st5" d="M167.59,182.28c0.54,1.52,1.14,3.01,1.77,4.49c-0.45,0.27-0.91,0.52-1.38,0.74
		C167.88,185.76,167.76,184.02,167.59,182.28z"/>
</g>
</svg>
